<svg id="Ñëîé_2" data-name="Ñëîé 2" xmlns="http://www.w3.org/2000/svg" viewBox="0 0 1200 1200"><defs><style>.cls-1{fill:#202020;}</style></defs><title>IVIIXIOArtboard 86</title><path class="cls-1" d="M1073,603.58c1.32-1.3,2-2.44,2-3.58s-.66-2.29-2-3.58c-77.09-75.48-70.16-61.45-63.89-72.66,5.32-9.51,13-23.36,19.68-34,1.4-2.25,2.17-3.49,2.17-4.63a2.44,2.44,0,0,0-.06-.55,2.17,2.17,0,0,0-.23-.52c-.56-1-1.85-1.67-4.19-2.92-11.08-5.93-24.7-14.06-34.06-19.64-11-6.57-10,9.05,19-94.87.5-1.78.5-3.1-.07-4.09s-1.71-1.65-3.51-2.11c-104.5-26.83-91.48-18.14-91.65-31-.15-10.9-.38-26.76,0-39.32.09-2.65.13-4.11-.44-5.09a1.83,1.83,0,0,0-.78-.78c-1-.57-2.44-.53-5.09-.44-12.56.4-28.42.17-39.32,0-12.84-.17-4.15,12.85-31-91.66-.46-1.79-1.12-2.93-2.11-3.5s-2.31-.57-4.09-.07c-103.92,29-88.3,30-94.87,19-5.58-9.36-13.71-23-19.64-34.06-1.25-2.34-1.94-3.63-2.92-4.19a2.17,2.17,0,0,0-.52-.23,2.44,2.44,0,0,0-.55-.06c-1.14,0-2.38.77-4.63,2.17-10.68,6.63-24.53,14.36-34,19.68-11.21,6.27,2.82,13.2-72.66-63.89-1.29-1.32-2.44-2-3.58-2s-2.29.66-3.58,2c-75.48,77.09-61.45,70.16-72.66,63.89-9.51-5.32-23.36-13.05-34-19.68-2.25-1.4-3.49-2.17-4.63-2.17a2.44,2.44,0,0,0-.55.06,2.17,2.17,0,0,0-.52.23c-1,.56-1.67,1.85-2.92,4.19-5.93,11.08-14.06,24.7-19.64,34.06-6.57,11,9.05,10-94.87-19-1.78-.5-3.1-.5-4.09.07s-1.65,1.71-2.11,3.5c-26.83,104.51-18.14,91.49-31,91.66-10.9.15-26.76.38-39.32,0-2.65-.09-4.11-.13-5.09.44a1.83,1.83,0,0,0-.78.78c-.57,1-.53,2.44-.44,5.09.4,12.56.17,28.42,0,39.32-.17,12.84,12.85,4.15-91.65,31-1.8.46-2.94,1.12-3.51,2.11s-.57,2.31-.07,4.09c29,103.92,30,88.3,19,94.87-9.36,5.58-23,13.71-34.06,19.64-2.34,1.25-3.63,1.94-4.19,2.92a2.17,2.17,0,0,0-.23.52,2.44,2.44,0,0,0-.06.55c0,1.14.77,2.38,2.17,4.63,6.63,10.68,14.36,24.53,19.68,34,6.27,11.21,13.2-2.82-63.89,72.66-1.32,1.29-2,2.44-2,3.58s.66,2.28,2,3.58c77.09,75.48,70.16,61.45,63.89,72.66-5.32,9.51-13.05,23.36-19.68,34-1.4,2.25-2.17,3.49-2.17,4.63a2.44,2.44,0,0,0,.06.55,2.17,2.17,0,0,0,.23.52c.56,1,1.85,1.67,4.19,2.92,11.08,5.93,24.7,14.06,34.06,19.64,11,6.57,10-9-19,94.87-.5,1.78-.5,3.1.07,4.09s1.71,1.65,3.51,2.11c104.5,26.83,91.48,18.14,91.65,31,.15,10.9.38,26.76,0,39.32-.09,2.65-.13,4.11.44,5.09a1.83,1.83,0,0,0,.78.78c1,.57,2.44.53,5.09.44,12.56-.4,28.42-.17,39.32,0,12.84.17,4.15-12.85,31,91.65.46,1.8,1.12,2.94,2.11,3.51s2.31.57,4.09.07c103.92-29,88.3-30,94.87-19,5.58,9.36,13.71,23,19.64,34.06,1.25,2.34,1.94,3.63,2.92,4.19a2.17,2.17,0,0,0,.52.23,2.44,2.44,0,0,0,.55.06c1.14,0,2.38-.77,4.63-2.17,10.68-6.63,24.53-14.36,34-19.68,11.21-6.27-2.82-13.2,72.66,63.89,1.29,1.32,2.44,2,3.58,2s2.29-.66,3.58-2c75.48-77.09,61.45-70.16,72.66-63.89,9.51,5.32,23.36,13,34,19.68,2.25,1.4,3.49,2.17,4.63,2.17a2.44,2.44,0,0,0,.55-.06,2.17,2.17,0,0,0,.52-.23c1-.56,1.67-1.85,2.92-4.19,5.93-11.08,14.06-24.7,19.64-34.06,6.57-11-9-10,94.87,19,1.78.5,3.1.5,4.09-.07s1.65-1.71,2.11-3.51c26.83-104.5,18.14-91.48,31-91.65,10.9-.15,26.76-.38,39.32,0,2.65.09,4.11.13,5.09-.44a1.83,1.83,0,0,0,.78-.78c.57-1,.53-2.44.44-5.09-.4-12.56-.17-28.42,0-39.32.17-12.84-12.85-4.15,91.65-31,1.8-.46,2.94-1.12,3.51-2.11s.57-2.31.07-4.09c-29-103.92-30-88.3-19-94.87,9.36-5.58,23-13.71,34.06-19.64,2.34-1.25,3.63-1.94,4.19-2.92a2.17,2.17,0,0,0,.23-.52,2.44,2.44,0,0,0,.06-.55c0-1.14-.77-2.38-2.17-4.63-6.63-10.68-14.36-24.53-19.68-34C1002.86,665,995.93,679.06,1073,603.58ZM1065.6,597h-18.39a10.9,10.9,0,0,1-7.29-2.81c-50.52-45.66-48.18-39.48-37.68-58.59C1015.12,547.31,1055.67,585.76,1065.6,597Zm-90.25,3c-15.05,10.74-6.94,10.9-30,0C968.41,589.1,960.3,589.26,975.35,600ZM968,588c12.14-13.5,5.38-17.86,35.44,9h-23a3.09,3.09,0,0,1-2.1-.81C976.24,594.3,972.81,591.82,968,588Zm10.32,15.78a3.09,3.09,0,0,1,2.1-.81h23c-30.06,26.84-23.3,22.48-35.44,9C972.81,608.18,976.24,605.7,978.36,603.81Zm29,2.41a14.09,14.09,0,0,1,9-3.23h18.5a5.25,5.25,0,0,1-.59.66l-42.95,40.11-9.91-15.9C981.67,627.48,999.37,612.86,1007.41,606.22Zm9-9.21a14.09,14.09,0,0,1-9-3.23c-8-6.64-25.74-21.26-26-21.64l9.91-15.9,42.95,40.11a5.25,5.25,0,0,1,.59.66ZM914,596.57l-1.7-7.19c52.07-3.58,62-32.42,95.51-92.88a8.12,8.12,0,0,1,5.06-3.94c3-.77,5.89-1.61,8.81-2.52C971,581.21,968,599.8,914,596.57ZM796.37,886.39c-43.39-31.79-8.28-33.24-7.62-71.76C806.88,846.49,788,852.25,796.37,886.39Zm-78.43,61.68c-15.06-30-27.27-17.94-16.88-39.36,36.5,45.08,47.54,22.81,23.78,70.42C726.15,967.73,723.5,959.13,717.94,948.07ZM703,893.36c56.21,27.4,50.4,23.28,40.42,51.46C729.29,923.65,703.38,917.22,703,893.36Zm-11.5-22.59c33.69,18.7,52.51-11,58.34,42.49C724.45,889,710,902.41,691.5,870.77Zm-19.6,89.64c.71,12.35,2.71,21.13,9.55,30.35-44.38-29.36-23.69-15.59-14.62-72.88C686.54,931.23,670,926.94,671.9,960.41ZM533.17,917.88c9.07,57.29,29.76,43.52-14.62,72.88,6.84-9.22,8.84-18,9.55-30.35C530,926.94,513.46,931.23,533.17,917.88Zm-58,61.25c-23.76-47.61-12.72-25.34,23.78-70.42,10.4,21.42-1.82,9.41-16.88,39.36C476.5,959.13,473.85,967.73,475.16,979.13Zm-18.58-34.31c-10-28.18-15.79-24.06,40.42-51.46C496.62,917.22,470.71,923.65,456.58,944.82Zm-6.42-31.56c5.83-53.48,24.65-23.79,58.34-42.49C490,902.41,475.55,889,450.16,913.26Zm-38.91-98.63c.66,38.52,35.77,40-7.62,71.76C412,852.25,393.12,846.49,411.25,814.63Zm-7.62-501c43.39,31.79,8.28,33.24,7.62,71.76C393.12,353.51,412,347.75,403.63,313.61Zm78.43-61.68c15.06,29.95,27.28,17.94,16.88,39.36-36.5-45.08-47.54-22.81-23.78-70.42C473.85,232.27,476.5,240.87,482.06,251.93ZM497,306.64c-56.21-27.4-50.4-23.28-40.42-51.46C470.71,276.35,496.62,282.78,497,306.64Zm11.5,22.59c-33.69-18.7-52.51,11-58.34-42.49C475.55,311,490,297.59,508.5,329.23Zm19.6-89.64c-.71-12.35-2.71-21.13-9.55-30.35,44.38,29.36,23.69,15.59,14.62,72.88C513.46,268.77,530,273.06,528.1,239.59Zm138.73,42.53c-9.07-57.29-29.76-43.52,14.62-72.88-6.84,9.22-8.84,18-9.55,30.35C670,273.06,686.54,268.77,666.83,282.12Zm58-61.25c23.76,47.61,12.72,25.34-23.78,70.42-10.39-21.42,1.82-9.41,16.88-39.36C723.5,240.87,726.15,232.27,724.84,220.87Zm18.58,34.31c10,28.18,15.79,24.06-40.42,51.46C703.38,282.78,729.29,276.35,743.42,255.18Zm6.42,31.56c-5.83,53.48-24.65,23.79-58.34,42.49C710,297.59,724.45,311,749.84,286.74Zm38.91,98.63c-.66-38.52-35.77-40,7.62-71.76C788,347.75,806.88,353.51,788.75,385.37ZM615,864c11.12-10.56,11.44-18.57,13.74-26.21l13.3,2.94c0,18.55-17.57,44.3-39.08,46.92V870.32C607.19,869.8,611.14,867.73,615,864Zm-12,.65V847.57a11.44,11.44,0,0,0,5.24-4.67c2.58-4.06,4.24-8.73,6.2-13.14,7.45,4.78,9.22,5.76,9.09,6.74C620,854.91,610.42,862.91,603,864.68Zm-.29-79.83c16.18-1.6,33.17-14,34.6-29.52,7.35,24.74,8.29,25.9,5.84,27.82-17.86,14-11.07,42.51,9,43.66a10.15,10.15,0,0,1,4.09,1.05,5.41,5.41,0,0,1,2,1.72c1.19,1.73,1.36,3.94,1.47,6a2.75,2.75,0,0,0,.09.5,46.31,46.31,0,0,1-16.77-.52C619.09,831,605.55,822,602.7,784.85ZM585,336c-11.12,10.56-11.44,18.57-13.74,26.21l-13.3-2.94c0-18.55,17.57-44.3,39.08-46.92v17.36C592.81,330.2,588.86,332.27,585,336Zm12-.65v17.11a11.44,11.44,0,0,0-5.24,4.67c-2.58,4.06-4.24,8.73-6.2,13.13-7.45-4.77-9.22-5.75-9.09-6.73C580,345.09,589.58,337.09,597,335.32Zm.29,79.83c-16.18,1.6-33.17,14-34.6,29.52-7.35-24.74-8.29-25.9-5.84-27.82,17.86-14,11.07-42.51-9-43.66a10.15,10.15,0,0,1-4.09-1.05,5.41,5.41,0,0,1-2-1.72c-1.19-1.73-1.36-3.94-1.47-6a2.75,2.75,0,0,0-.09-.5,46.31,46.31,0,0,1,16.77.52C580.91,369,594.45,378,597.3,415.15ZM864.68,597H847.57a11.44,11.44,0,0,0-4.67-5.24c-4.06-2.58-8.73-4.24-13.13-6.2,4.77-7.45,5.75-9.22,6.73-9.09C854.91,580,862.91,589.58,864.68,597Zm-26.86-25.78,2.94-13.3c18.55,0,44.3,17.57,46.92,39.08H870.32c-.52-4.2-2.59-8.15-6.29-12C853.47,573.85,845.46,573.53,837.82,571.23ZM841.43,600a3.53,3.53,0,0,1-1.78,2.94c-15.69,10-16,5.81-33.37-2.94,17.33-8.75,17.68-13,33.37-2.94A3.53,3.53,0,0,1,841.43,600Zm-5.9-43.08c-4.5,24-13.53,37.53-50.68,40.38-1.6-16.18-14-33.17-29.52-34.6,24.74-7.35,25.9-8.29,27.82-5.84,14,17.86,42.51,11.07,43.66-9a10.15,10.15,0,0,1,1.05-4.09,5.41,5.41,0,0,1,1.72-2c1.73-1.19,3.94-1.36,6-1.47a2.75,2.75,0,0,0,.5-.09A46.31,46.31,0,0,1,835.53,556.92Zm-102,120.18c3.32-5.75-1.71-16.32-20.6-22.16,9.08-5.12,8.63-5.13,14.14-2.63,17.36,7.83,20.53,21.29,15.5,30s-18.28,12.71-33.74,1.59c-4.93-3.52-4.69-3.14-4.8-13.57C718.56,683.79,730.23,682.85,733.55,677.1Zm-29.81-17.21a2.11,2.11,0,0,1,2.49-1c11.5,3.49,26.62,8.94,22.4,15.35-3.45,6.86-15.72-3.51-24.5-11.72A2.11,2.11,0,0,1,703.74,659.89ZM690.9,647.5a38,38,0,0,1,.93-5.38c9.88.84,24.36,2,27.8-10.06,3.08-12.21-10.07-18.41-19-22.62a37.87,37.87,0,0,1,1.88-5.12c3-6,30.32,9.32,24.24,29.63C721.82,654.58,690.56,654.18,690.9,647.5Zm-90.9,50c-17-.34-18.51-22.7-14.23-23.87,6.65-1.81,11.32-5.42,14.23-11,2.91,5.61,7.58,9.22,14.23,11C618.51,674.84,617,697.2,600,697.54Zm2.1,23.91c2.72,11.71,5.57,27.52-2.1,27.07-7.67.45-4.82-15.36-2.1-27.07a2.16,2.16,0,0,1,4.2,0ZM466.45,677.1c3.32,5.75,15,6.69,29.5-6.76-.11,10.43.13,10-4.8,13.57-15.46,11.12-28.7,7.13-33.74-1.59s-1.86-22.18,15.5-30c5.51-2.5,5.06-2.49,14.14,2.63C468.16,660.78,463.13,671.35,466.45,677.1Zm29.42-14.56c-8.78,8.21-21.05,18.58-24.5,11.72-4.22-6.41,10.9-11.86,22.4-15.35a2.15,2.15,0,0,1,2.1,3.63ZM473.29,634c-6.08-20.31,21.19-35.59,24.24-29.63a37.87,37.87,0,0,1,1.88,5.12c-9,4.21-22.12,10.41-19,22.62,3.44,12.11,17.92,10.9,27.8,10.06a38,38,0,0,1,.93,5.38C509.44,654.18,478.18,654.58,473.29,634ZM466.45,522.9c-3.32,5.75,1.71,16.32,20.6,22.16-9.08,5.12-8.63,5.13-14.14,2.63-17.36-7.83-20.53-21.29-15.5-30s18.28-12.71,33.74-1.59c4.93,3.52,4.69,3.14,4.8,13.57C481.44,516.21,469.77,517.15,466.45,522.9Zm29.81,17.21a2.11,2.11,0,0,1-2.49,1c-11.5-3.49-26.62-8.94-22.4-15.35,3.45-6.86,15.72,3.51,24.5,11.72A2.11,2.11,0,0,1,496.26,540.11ZM509.1,552.5a38,38,0,0,1-.93,5.38c-9.88-.84-24.36-2-27.8,10.06-3.08,12.21,10.07,18.41,19,22.62a37.87,37.87,0,0,1-1.88,5.12c-3,6-30.32-9.32-24.24-29.63C478.18,545.42,509.44,545.82,509.1,552.5Zm90.9-50c17,.34,18.51,22.7,14.23,23.87-6.65,1.81-11.32,5.42-14.23,11-2.91-5.61-7.58-9.22-14.23-11C581.49,525.16,583,502.8,600,502.46Zm-2.1-23.91c-2.72-11.71-5.57-27.52,2.1-27.07,7.67-.45,4.82,15.36,2.1,27.07a2.16,2.16,0,0,1-4.2,0ZM733.55,522.9c-3.32-5.75-15-6.69-29.5,6.76.11-10.43-.13-10,4.8-13.57,15.46-11.12,28.7-7.13,33.74,1.59s1.86,22.18-15.5,30c-5.51,2.5-5.06,2.49-14.14-2.63C731.84,539.22,736.87,528.65,733.55,522.9Zm-29.42,14.56c8.78-8.21,21-18.58,24.5-11.72,4.22,6.41-10.9,11.86-22.4,15.35a2.15,2.15,0,0,1-2.1-3.63Zm22.58,28.59c6.08,20.31-21.19,35.59-24.24,29.63a37.87,37.87,0,0,1-1.88-5.12c9-4.21,22.12-10.41,19-22.62-3.44-12.11-17.92-10.9-27.8-10.06a38,38,0,0,1-.93-5.38C690.56,545.82,721.82,545.42,726.71,566.05Zm-5.26,31.85c11.71-2.72,27.52-5.57,27.07,2.1.45,7.67-15.36,4.82-27.07,2.1a2.16,2.16,0,0,1,0-4.2ZM659,659c17.06,4.31,21.68,5.53,26.3,12.07,2.89,4.08,1.6,9-1.83,12.43s-8.35,4.72-12.43,1.83c-6.54-4.61-7.76-9.24-12.07-26.3h0Zm-2.34-9.84c1.76-6.66,1-12.52-2.44-17.84,6.31.28,11.78-2,16.66-6.8,3.15-3.13,21.76,9.37,13.57,24.25C675.68,663.32,655.56,653.45,656.69,649.16Zm-29.31-21.65.16,0,0-.16c4.7,1.06,9.6,2.93,14.85.21,6.95.62,13.71,16.42,7.62,22.39s-21.77-.67-22.39-7.62C630.31,637.11,628.44,632.21,627.38,627.51Zm.21-69.87c.62-6.95,16.42-13.71,22.39-7.62s-.67,21.77-7.62,22.39c-5.25-2.72-10.15-.85-14.85.21l0-.16-.16,0C628.44,567.79,630.31,562.89,627.59,557.64Zm29.1-6.8c-1.13-4.29,19-14.16,27.79.39,8.19,14.88-10.42,27.38-13.57,24.25-4.88-4.85-10.35-7.08-16.66-6.8C657.65,563.36,658.45,557.5,656.69,550.84ZM659,541c4.31-17.06,5.53-21.69,12.07-26.3,4.08-2.89,9-1.6,12.43,1.83s4.72,8.35,1.83,12.43c-4.62,6.54-9.24,7.76-26.3,12.07v0Zm9.27,40.74c2.29,8.21-11.46,18.52-17.8,15.58-3.18-5-8.36-5.82-13-7.25l.11-.12-.15,0c3.26-3.54,7.34-6.85,7.6-12.76C649.08,571.4,666.15,573.45,668.27,581.71ZM644.86,600c0,3.65-10.58,7.47-27.19,0C634.28,592.53,644.88,596.35,644.86,600Zm-6-22.43c1.85,3.15-5.43,11.76-23.55,13.59C626,576.4,637,574.4,638.85,577.57Zm-30,7.13c1.83-18.12,10.44-25.4,13.59-23.55S623.6,574.05,608.84,584.7Zm6.46,24.14c18.12,1.83,25.4,10.44,23.55,13.59S626,623.6,615.3,608.84Zm7.13,30c-3.15,1.85-11.76-5.43-13.59-23.55C623.6,626,625.6,637,622.43,638.85Zm22.64-16c-.26-5.91-4.34-9.22-7.6-12.76l.15,0-.11-.12c4.6-1.43,9.78-2.26,13-7.25,6.34-2.94,20.09,7.37,17.8,15.58C666.15,626.55,649.08,628.6,645.07,622.89Zm35.54-1.27h0l0,0c16.93-4.8,21.54-6.06,28.82-2.7,4.53,2.09,5.87,7,4.62,11.68s-4.87,8.26-9.84,7.81C696.24,637.64,692.87,634.24,680.61,621.62Zm-6.94-7.39c-1.81-6.65-5.42-11.32-11-14.23,5.61-2.91,9.22-7.58,11-14.23,1.17-4.28,23.53-2.76,23.87,14.23C697.2,617,674.84,618.51,673.67,614.23Zm7-35.81,0,0h0c12.26-12.62,15.63-16,23.61-16.75,5-.45,8.58,3.12,9.84,7.81s-.09,9.59-4.62,11.68C702.16,584.48,697.55,583.22,680.62,578.42Zm6-33.39a38.55,38.55,0,0,1-4.2-3.5c5.67-8.13,14-20.07,5.19-29.11-9-8.77-21-.48-29.11,5.19a38.55,38.55,0,0,1-3.5-4.2c-3.63-5.61,23.24-21.59,37.79-6.17C708.18,521.79,692.2,548.66,686.59,545Zm-27.68-51.26c3.49-11.5,8.94-26.62,15.35-22.4,6.86,3.45-3.51,15.72-11.72,24.5a2.15,2.15,0,0,1-3.63-2.1ZM670.34,496c13.45-14.51,12.51-26.18,6.76-29.5s-16.32,1.71-22.16,20.6c-5.12-9.08-5.13-8.63-2.63-14.14,7.83-17.36,21.29-20.53,30-15.5s12.71,18.28,1.59,33.74C680.39,496.07,680.77,495.84,670.34,496Zm-21.18,47.36c-6.66-1.76-12.52-1-17.84,2.44.28-6.31-2-11.78-6.8-16.66-3.13-3.15,9.37-21.76,24.25-13.57C663.32,524.32,653.45,544.44,649.16,543.31Zm-10.79-47.53c-.73,8-4.13,11.35-16.75,23.61v0l0,0c-4.8-16.93-6.06-21.54-2.7-28.82,2.09-4.53,7-5.87,11.68-4.62S638.82,490.81,638.37,495.78Zm-20.08,36c8.26,2.12,10.31,19.19,4.6,23.2-5.91.26-9.22,4.34-12.76,7.6l0-.15-.12.11c-1.43-4.6-2.26-9.78-7.25-13C599.77,543.19,610.08,529.44,618.29,531.73ZM600,582.33c-7.47-16.61-3.65-27.21,0-27.19S607.47,565.72,600,582.33Zm0,62.53c-3.65,0-7.47-10.58,0-27.19C607.47,634.28,603.65,644.88,600,644.86Zm-2.71-95.33c-5,3.18-5.82,8.36-7.25,13l-.12-.11,0,.15c-3.54-3.26-6.85-7.34-12.76-7.6-5.71-4-3.66-21.08,4.6-23.2C589.92,529.44,600.23,543.19,597.29,549.53Zm-24.88,92.83C571.79,649.31,556,656.07,550,650s.67-21.77,7.62-22.39c5.25,2.72,10.15.85,14.85-.21l0,.16.16,0C571.56,632.21,569.69,637.11,572.41,642.36Zm-29.1,6.8c1.13,4.29-19,14.16-27.79-.39-8.19-14.88,10.42-27.38,13.57-24.25,4.88,4.85,10.35,7.08,16.66,6.8C542.35,636.64,541.55,642.5,543.31,649.16ZM541,659c-4.31,17.06-5.53,21.69-12.07,26.3-4.08,2.89-9,1.6-12.43-1.83s-4.72-8.35-1.84-12.43c4.63-6.54,9.25-7.76,26.31-12.07v0Zm0-118c-17.06-4.31-21.68-5.53-26.31-12.07-2.88-4.08-1.59-9,1.84-12.43s8.35-4.72,12.43-1.83c6.54,4.61,7.76,9.24,12.07,26.3h0Zm2.34,9.84c-1.76,6.66-1,12.52,2.44,17.84-6.31-.28-11.78,2-16.66,6.8-3.15,3.13-21.76-9.37-13.57-24.25C524.32,536.68,544.44,546.55,543.31,550.84Zm29.31,21.65-.16,0,0,.16c-4.7-1.06-9.6-2.93-14.85-.21C550.69,571.79,543.93,556,550,550s21.77.67,22.39,7.62C569.69,562.89,571.56,567.79,572.62,572.49Zm-11.47,5.08c1.81-3.17,12.9-1.17,23.55,13.59C566.58,589.33,559.3,580.72,561.15,577.57ZM582.33,600c-16.61,7.47-27.21,3.65-27.19,0S565.72,592.53,582.33,600Zm-27.4-22.89c.26,5.91,4.34,9.22,7.6,12.76l-.15,0,.11.12c-4.6,1.43-9.78,2.26-13,7.25-6.34,2.94-20.09-7.37-17.8-15.58C533.85,573.45,550.92,571.4,554.93,577.11Zm-35.54,1.27h0l0,0c-16.93,4.8-21.54,6.06-28.82,2.7-4.53-2.09-5.87-7-4.62-11.68s4.87-8.26,9.84-7.81C503.76,562.36,507.13,565.76,519.39,578.38Zm6.94,7.39c1.81,6.65,5.42,11.32,11,14.23-5.61,2.91-9.22,7.58-11,14.23-1.17,4.28-23.53,2.76-23.87-14.23C502.8,583,525.16,581.49,526.33,585.77Zm-7,35.81,0,0h0c-12.26,12.62-15.63,16-23.61,16.75-5,.45-8.58-3.12-9.84-7.81s.09-9.59,4.62-11.68C497.84,615.52,502.45,616.78,519.38,621.58Zm12.35-3.29c-2.29-8.21,11.46-18.52,17.8-15.58,3.18,5,8.36,5.82,13,7.25l-.11.12.15,0c-3.26,3.54-7.34,6.85-7.6,12.76C550.92,628.6,533.85,626.55,531.73,618.29Zm29.42,4.14c-1.85-3.15,5.43-11.76,23.55-13.59C574.05,623.6,563,625.6,561.15,622.43Zm30-7.13c-1.83,18.12-10.44,25.4-13.59,23.55S576.4,626,591.16,615.3Zm-13.59-54.15c3.15-1.85,11.76,5.43,13.59,23.55C576.4,574.05,574.4,563,577.57,561.15Zm.85-41.77,0,0v0c-12.62-12.26-16-15.63-16.75-23.61-.45-5,3.12-8.58,7.81-9.84s9.59.09,11.68,4.62C584.48,497.84,583.22,502.45,578.42,519.38Zm-2.94,9.71c-4.85,4.88-7.08,10.35-6.8,16.66-5.32-3.4-11.18-4.2-17.84-2.44-4.29,1.13-14.16-19,.39-27.79C566.11,507.33,578.61,525.94,575.48,529.09ZM522.9,466.45c-5.75,3.32-6.69,15,6.76,29.5-10.43-.11-10,.12-13.57-4.8-11.12-15.46-7.13-28.7,1.59-33.74s22.18-1.86,30,15.5c2.5,5.51,2.49,5.06-2.63,14.14C539.22,468.16,528.65,463.13,522.9,466.45Zm17.21,29.81a2.11,2.11,0,0,1-2.65-.39c-8.21-8.78-18.58-21.05-11.72-24.5,6.41-4.22,11.86,10.9,15.35,22.4A2.11,2.11,0,0,1,540.11,496.26ZM545,513.41a38.55,38.55,0,0,1-3.5,4.2c-8.13-5.67-20.07-14-29.11-5.19-8.77,9-.48,21,5.19,29.11a38.55,38.55,0,0,1-4.2,3.5c-5.61,3.63-21.59-23.24-6.17-37.79C521.79,491.82,548.66,507.8,545,513.41ZM480.22,600a2.11,2.11,0,0,1-1.67,2.1c-11.71,2.72-27.52,5.57-27.07-2.1-.45-7.67,15.36-4.82,27.07-2.1A2.11,2.11,0,0,1,480.22,600Zm-5.5-8.89c-19.29-4.39-28.93,2.25-28.93,8.89s9.64,13.28,28.93,8.89c-5.32,9-4.91,8.76-10.94,9.35-18.95,1.9-28.42-8.17-28.42-18.24s9.47-20.14,28.42-18.24C469.81,582.35,469.4,582.13,474.72,591.11ZM513.41,655a38.55,38.55,0,0,1,4.2,3.5c-5.67,8.13-14,20.07-5.19,29.11,9,8.77,21,.48,29.11-5.19a38.55,38.55,0,0,1,3.5,4.2c3.63,5.61-23.24,21.59-37.79,6.17C491.82,678.21,507.8,651.34,513.41,655Zm27.68,51.26c-3.49,11.5-8.94,26.62-15.35,22.4-6.86-3.45,3.51-15.72,11.72-24.5a2.15,2.15,0,0,1,3.63,2.1Zm-11.43-2.18c-13.45,14.51-12.51,26.18-6.76,29.5s16.32-1.71,22.16-20.6c5.12,9.08,5.13,8.63,2.63,14.14-7.83,17.36-21.29,20.53-30,15.5s-12.71-18.28-1.59-33.74C519.61,703.92,519.23,704.16,529.66,704.05Zm21.18-47.36c6.66,1.76,12.52,1,17.84-2.44-.28,6.31,2,11.78,6.8,16.66,3.13,3.15-9.37,21.76-24.25,13.57C536.68,675.68,546.55,655.56,550.84,656.69Zm10.79,47.53c.73-8,4.13-11.35,16.75-23.61v0l0,0c4.8,16.93,6.06,21.54,2.7,28.82-2.09,4.53-7,5.87-11.68,4.62S561.18,709.19,561.63,704.22Zm20.08-36c-8.26-2.12-10.31-19.19-4.6-23.2,5.91-.26,9.22-4.34,12.76-7.6l0,.15.12-.11c1.43,4.6,2.26,9.78,7.25,13C600.23,656.81,589.92,670.56,581.71,668.27Zm21-17.8c5-3.18,5.82-8.36,7.25-13l.12.11,0-.15c3.54,3.26,6.85,7.34,12.76,7.6,5.71,4,3.66,21.08-4.6,23.2C610.08,670.56,599.77,656.81,602.71,650.47Zm18.87,30.15,0,0v0c12.62,12.26,16,15.63,16.75,23.61.45,5-3.12,8.58-7.81,9.84s-9.59-.09-11.68-4.62C615.52,702.16,616.78,697.55,621.58,680.62Zm2.94-9.71c4.85-4.88,7.08-10.35,6.8-16.66,5.32,3.4,11.18,4.2,17.84,2.44,4.29-1.13,14.16,19-.39,27.79C633.89,692.67,621.39,674.06,624.52,670.91Zm52.58,62.64c5.75-3.32,6.69-15-6.76-29.5,10.43.11,10-.13,13.57,4.8,11.12,15.46,7.13,28.7-1.59,33.74s-22.18,1.86-30-15.5c-2.5-5.51-2.49-5.06,2.63-14.14C660.78,731.84,671.35,736.87,677.1,733.55Zm-17.21-29.81a2.11,2.11,0,0,1,2.65.39c8.21,8.78,18.58,21,11.72,24.5-6.41,4.22-11.86-10.9-15.35-22.4A2.11,2.11,0,0,1,659.89,703.74ZM655,686.59a38.55,38.55,0,0,1,3.5-4.2c8.13,5.67,20.07,14,29.11,5.19,8.77-9,.48-21-5.19-29.11a38.55,38.55,0,0,1,4.2-3.5c5.61-3.63,21.59,23.24,6.17,37.79C678.21,708.18,651.34,692.2,655,686.59Zm70.31-77.7c19.29,4.39,28.93-2.25,28.93-8.89s-9.64-13.28-28.93-8.89c5.32-9,4.91-8.76,10.94-9.35,18.95-1.9,28.42,8.17,28.42,18.24s-9.47,20.14-28.42,18.24C730.19,617.65,730.6,617.87,725.28,608.89Zm1.17-55.22.22-.13a5.89,5.89,0,0,1,1-.57c22.54-8.42,26-26.09,19.28-37.82s-23.83-17.53-42.4-2.22a6.45,6.45,0,0,1-1,.61l-.23.12c-3-5.12-4.85-7.45-3.26-9,17.23-17.19,43.49-10.41,53.38,6.79s2.69,43.29-20.81,49.62C730.47,561.6,729.37,558.84,726.45,553.67Zm-31.06-53.75c-1.6,1.59-3.93-.25-9-3.26l.12-.23a6.45,6.45,0,0,1,.61-1c15.31-18.57,9.51-35.63-2.22-42.4s-29.4-3.26-37.82,19.28a5.89,5.89,0,0,1-.57,1,2.53,2.53,0,0,1-.13.22c-5.17-2.92-7.93-4-7.35-6.2,6.33-23.5,32.46-30.76,49.62-20.81S712.58,482.69,695.39,499.92ZM647.5,509.1a38,38,0,0,1-5.38-.93c.84-9.88,2-24.36-10.06-27.8-12.21-3.08-18.41,10.07-22.62,19a37.87,37.87,0,0,1-5.12-1.88c-6-3,9.32-30.32,29.63-24.24C654.58,478.18,654.18,509.44,647.5,509.1Zm-29.26-45.32c-.59,6-.37,5.62-9.35,10.94,4.39-19.29-2.25-28.93-8.89-28.93s-13.28,9.64-8.89,28.93c-9-5.32-8.76-4.91-9.35-10.94-1.9-18.95,8.17-28.42,18.24-28.42S620.14,444.83,618.24,463.78Zm-22.56,33.75a37.87,37.87,0,0,1-5.12,1.88c-4.21-9-10.41-22.12-22.62-19-12.11,3.44-10.9,17.92-10.06,27.8a38,38,0,0,1-5.38.93c-6.68.34-7.08-30.92,13.55-35.81C586.36,467.21,601.64,494.48,595.68,497.53Zm-42-24-.13-.22a5.89,5.89,0,0,1-.57-1c-8.42-22.54-26.09-26.05-37.82-19.28s-17.53,23.83-2.22,42.4a6.45,6.45,0,0,1,.61,1l.12.23c-5.12,3-7.45,4.85-9,3.26-17.19-17.23-10.41-43.49,6.79-53.38s43.29-2.69,49.62,20.81C561.6,469.53,558.84,470.63,553.67,473.55Zm-53.75,31.06c1.59,1.6-.25,3.93-3.26,9l-.23-.12a6.45,6.45,0,0,1-1-.61c-18.57-15.31-35.63-9.51-42.4,2.22s-3.26,29.4,19.28,37.82a5.89,5.89,0,0,1,1,.57l.22.13c-2.92,5.17-4,7.93-6.2,7.35-23.5-6.33-30.76-32.46-20.81-49.62S482.69,487.42,499.92,504.61Zm-34.29,62.82c2.18.59,1.75,3.53,1.7,9.47h-.26a7,7,0,0,1-1.17,0c-23.73-4-35.61,9.57-35.61,23.12s11.88,27.09,35.61,23.12a7,7,0,0,1,1.17,0h.26c.05,5.94.48,8.88-1.7,9.47-23.52,6.27-42.87-12.73-42.83-32.57S442.11,561.16,465.63,567.43ZM467.35,639c2.18-.58,3.28,2.18,6.2,7.35l-.22.13a5.89,5.89,0,0,1-1,.57c-22.54,8.42-26.05,26.09-19.28,37.82s23.83,17.53,42.4,2.22a6.45,6.45,0,0,1,1-.61l.23-.12c3,5.12,4.85,7.45,3.26,9-17.23,17.19-43.49,10.41-53.38-6.79S443.85,645.31,467.35,639Zm37.26,61.1c1.6-1.59,3.93.25,9,3.26l-.12.23a6.45,6.45,0,0,1-.61,1c-15.31,18.57-9.52,35.63,2.22,42.4s29.4,3.26,37.82-19.28a5.89,5.89,0,0,1,.57-1l.13-.22c5.17,2.92,7.93,4,7.35,6.2-6.33,23.5-32.46,30.76-49.62,20.81S487.42,717.31,504.61,700.08Zm47.89-9.18a38,38,0,0,1,5.38.93c-.84,9.88-2,24.36,10.06,27.8,12.21,3.08,18.41-10.07,22.62-19a37.87,37.87,0,0,1,5.12,1.88c6,3-9.32,30.32-29.63,24.24C545.42,721.82,545.82,690.56,552.5,690.9Zm29.26,45.32c.59-6,.37-5.62,9.35-10.94-4.39,19.29,2.25,28.93,8.89,28.93s13.28-9.64,8.89-28.93c9,5.32,8.76,4.91,9.35,10.94,1.9,18.95-8.17,28.42-18.24,28.42S579.86,755.17,581.76,736.22Zm22.56-33.75a37.87,37.87,0,0,1,5.12-1.88c4.21,9,10.41,22.12,22.62,19,12.11-3.44,10.9-17.92,10.06-27.8a38,38,0,0,1,5.38-.93c6.68-.34,7.08,30.92-13.55,35.81C613.64,732.79,598.36,705.52,604.32,702.47Zm42,24a2.53,2.53,0,0,1,.13.22,5.89,5.89,0,0,1,.57,1c8.42,22.54,26.09,26,37.82,19.28s17.53-23.83,2.22-42.4a6.45,6.45,0,0,1-.61-1l-.12-.23c5.12-3,7.45-4.85,9-3.26,17.19,17.23,10.41,43.49-6.79,53.38s-43.29,2.69-49.62-20.81C638.4,730.47,641.16,729.37,646.33,726.45Zm53.75-31.06c-1.59-1.6.25-3.93,3.26-9l.23.12a6.45,6.45,0,0,1,1,.61c18.57,15.31,35.63,9.51,42.4-2.22s3.26-29.4-19.28-37.82a5.89,5.89,0,0,1-1-.57l-.22-.13c2.92-5.17,4-7.93,6.2-7.35,23.5,6.33,30.76,32.46,20.81,49.62S717.31,712.58,700.08,695.39Zm34.29-62.82c-2.18-.59-1.75-3.53-1.7-9.47h.26a7,7,0,0,1,1.17,0c23.73,4,35.61-9.57,35.61-23.12s-11.88-27.09-35.61-23.12a7,7,0,0,1-1.17,0h-.26c0-5.94-.48-8.88,1.7-9.47,23.52-6.27,42.87,12.73,42.83,32.57S757.89,638.84,734.37,632.57Zm84.7-91.27c5.87,20.63-28,26.58-32.78,8.79S813.84,520.5,819.07,541.3Zm14.8-7.32c-1.81.91-3.81,1.88-5.9,1.71a5.44,5.44,0,0,1-2.51-.91,10.15,10.15,0,0,1-3-3c-11-16.82-39.14-8.43-42.31,14-.44,3.09-1.92,2.86-27,8.86,12.74-9,15-29.91,8.26-44.73,33.6-16.1,48.19-8.9,64.08,9.63a46.49,46.49,0,0,1,8.84,14.27A2.3,2.3,0,0,0,833.87,534Zm-19.4-48.3a11.47,11.47,0,0,0,1.43-6.87l14.81-8.55c2.18,7.31.07,19.64-14.13,31.85-.79.61-2.52-.43-10.38-4.5C809,493.71,812.25,489.94,814.47,485.68Zm-1.56-12.06a11.53,11.53,0,0,0-6.67-2.2c-4.81-.2-9.68.7-14.47,1.2.4-8.84.37-10.86,1.29-11.24,17.68-6.19,29.41-1.86,34.66,3.69ZM820.34,506c5.47-5.81,12.24-10.08,15.84-25,1.25-5.21,1.06-9.67-.58-13.57l15-8.68c8.48,19.93-5,48.06-21.1,57.31Zm12.27-43.75c-2.55-3.37-6.32-5.77-11.47-7.29-14.71-4.34-21.8-.61-29.56,1.22l-4.11-13c16-9.3,47.15-6.92,60.17,10.39Zm-26.53,15.38a3.32,3.32,0,0,1,2.93,5.09c-8.58,16.51-11,13-30.36,14.14C789.28,480.61,787.48,476.81,806.08,477.63Zm-47.35,27.61C749.25,492,730,483.5,715.87,490c17.75-18.74,18.29-20.14,21.18-19,21,8.48,42.35-11.67,33.3-29.63a10.21,10.21,0,0,1-1.14-4.07,5.33,5.33,0,0,1,.47-2.63c.9-1.89,2.73-3.15,4.43-4.26a2.44,2.44,0,0,0,.39-.33,46.68,46.68,0,0,1,7.94,14.79C790.53,468,789.48,484.19,758.73,505.24Zm1.64-65.61c15.4,14.93-10.93,37-24,24S745.44,424.23,760.37,439.63Zm9.16-13.74c-1.11,1.7-2.37,3.53-4.26,4.43a5.33,5.33,0,0,1-2.63.47,10.21,10.21,0,0,1-4.07-1.14c-18-9-38.11,12.27-29.63,33.3,1.16,2.89-.24,3.43-19,21.18,6.54-14.17-2-33.39-15.2-42.86,21-30.75,37.28-31.8,60.31-23.71a46.68,46.68,0,0,1,14.79,7.94A3.09,3.09,0,0,0,769.53,425.89Zm-40.95-32.13a11.53,11.53,0,0,0-2.2-6.67l8.55-14.81c5.55,5.25,9.88,17,3.69,34.66-.38.92-2.4.89-11.24,1.29C727.88,403.44,728.78,398.57,728.58,393.76Zm-7.39-9.66a11.47,11.47,0,0,0-6.87,1.43c-4.26,2.22-8,5.44-11.93,8.27-4.07-7.86-5.11-9.59-4.5-10.38,12.21-14.2,24.54-16.31,31.85-14.13Zm-18.05,37.25c1.09-19.38-2.38-21.78,14.14-30.36a3.32,3.32,0,0,1,5.09,2.94C723.19,412.52,719.39,410.72,703.14,421.35Zm53.68-8.82-13-4.11c1.83-7.76,5.56-14.85,1.22-29.56-1.52-5.15-3.92-8.92-7.29-11.47l8.68-15C763.74,365.38,766.12,396.48,756.82,412.53ZM732.57,364.4c-3.9-1.64-8.36-1.83-13.57-.58-14.92,3.6-19.19,10.37-25,15.84l-10.06-9.2c9.25-16.08,37.38-29.58,57.31-21.1Zm-42.48,74.17c-14.82-6.71-35.72-4.48-44.73,8.26,6-25.1,5.77-26.58,8.86-27,22.45-3.17,30.84-31.28,14-42.31a10.15,10.15,0,0,1-3-3,5.44,5.44,0,0,1-.91-2.51c-.17-2.09.8-4.09,1.71-5.9a2.3,2.3,0,0,0,.17-.48,46.49,46.49,0,0,1,14.27,8.84C699,390.38,706.19,405,690.09,438.57Zm-40.17-24.85c-17.8-4.82-11.85-38.66,8.78-32.79C679.5,386.16,667.73,418.44,649.92,413.72Zm9.84-49.27c-.11,2-.28,4.24-1.47,6a5.41,5.41,0,0,1-2,1.72,10.15,10.15,0,0,1-4.09,1.05c-20.08,1.15-26.87,29.68-9,43.66,2.45,1.92,1.51,3.08-5.84,27.82-1.43-15.54-18.42-27.92-34.6-29.52,2.85-37.15,16.39-46.18,40.38-50.68a46.31,46.31,0,0,1,16.77-.52A2.75,2.75,0,0,0,659.76,364.45ZM632.57,465.63c-.59,2.18-3.53,1.75-9.47,1.7a2.17,2.17,0,0,0,0-.26,7,7,0,0,1,0-1.17c4-23.73-9.57-35.61-23.12-35.61s-27.09,11.88-23.12,35.61a7,7,0,0,1,0,1.17,2.17,2.17,0,0,0,0,.26c-5.94.05-8.88.48-9.47-1.7-6.27-23.52,12.73-42.87,32.57-42.83S638.84,442.11,632.57,465.63Zm-91.27-84.7c20.63-5.87,26.58,28,8.79,32.79S520.5,386.16,541.3,380.93Zm-5.61-8.9a5.44,5.44,0,0,1-.91,2.51,10.15,10.15,0,0,1-3,3c-16.82,11-8.43,39.14,14,42.31,3.09.44,2.86,1.92,8.86,27-9-12.74-29.91-15-44.73-8.26-16.1-33.6-8.9-48.19,9.63-64.08a46.49,46.49,0,0,1,14.27-8.84,2.3,2.3,0,0,0,.17.48C534.89,367.94,535.86,369.94,535.69,372Zm-50,13.5a11.47,11.47,0,0,0-6.87-1.43l-8.55-14.81c7.31-2.18,19.64-.07,31.85,14.13.61.79-.43,2.52-4.5,10.38C493.71,391,489.94,387.75,485.68,385.53Zm11.18,35.82c-16.25-10.63-20.05-8.83-19.23-27.42a3.32,3.32,0,0,1,5.09-2.94C499.24,399.57,495.77,402,496.86,421.35Zm-24.24-13.12c-8.84-.4-10.86-.37-11.24-1.29-6.19-17.68-1.86-29.41,3.69-34.66l8.55,14.81a11.53,11.53,0,0,0-2.2,6.67C471.22,398.57,472.12,403.44,472.62,408.23ZM506,379.66c-5.81-5.47-10.08-12.24-25-15.84-5.21-1.25-9.67-1.06-13.57.58l-8.68-15c19.93-8.48,48.06,5,57.31,21.1Zm-43.75-12.27c-3.37,2.55-5.77,6.32-7.29,11.47-4.34,14.71-.61,21.8,1.22,29.56l-13,4.11c-9.3-16-6.92-47.15,10.39-60.17Zm-17.32,50.17c23-8.09,39.26-7,60.31,23.71C492,450.74,483.5,470,490,484.13c-18.74-17.75-20.14-18.29-19-21.18,8.48-21-11.67-42.35-29.63-33.3a10.21,10.21,0,0,1-4.07,1.14,5.33,5.33,0,0,1-2.63-.47c-1.89-.9-3.15-2.73-4.26-4.43a2.44,2.44,0,0,0-.33-.39A46.68,46.68,0,0,1,444.93,417.56Zm18.7,46.07c-13.07,13-39.4-9.07-24-24C454.56,424.23,476.63,450.56,463.63,463.63Zm-33.31-28.9a5.33,5.33,0,0,1,.47,2.63,10.21,10.21,0,0,1-1.14,4.07c-9,18,12.27,38.11,33.3,29.63,2.89-1.16,3.43.24,21.18,19-14.17-6.54-33.38,2-42.86,15.2-30.75-21.05-31.8-37.29-23.71-60.31a46.68,46.68,0,0,1,7.94-14.79,2.44,2.44,0,0,0,.39.33C427.59,431.58,429.42,432.84,430.32,434.73Zm-9,62.13c-19.38-1.09-21.78,2.37-30.36-14.14a3.32,3.32,0,0,1,2.93-5.09C412.52,476.81,410.72,480.61,421.35,496.86ZM384.1,478.81a11.47,11.47,0,0,0,1.43,6.87c2.22,4.26,5.44,8,8.27,11.93-7.86,4.07-9.59,5.11-10.38,4.5-14.2-12.21-16.31-24.54-14.13-31.85Zm-11.82-13.74c5.25-5.55,17-9.88,34.66-3.69.92.38.89,2.4,1.29,11.24-4.79-.5-9.66-1.4-14.47-1.2a11.53,11.53,0,0,0-6.67,2.2Zm36.14-8.89c-7.76-1.83-14.85-5.56-29.56-1.22-5.15,1.52-8.92,3.92-11.47,7.29l-15-8.68c13-17.31,44.12-19.69,60.17-10.39Zm-44,11.25c-1.64,3.9-1.83,8.36-.58,13.57,3.6,14.92,10.37,19.19,15.84,25l-9.2,10.06c-16.08-9.25-29.58-37.38-21.1-57.31Zm10.09,52.11c15.89-18.53,30.48-25.73,64.08-9.63-6.71,14.82-4.48,35.72,8.26,44.73-25.1-6-26.58-5.77-27-8.86-3.17-22.45-31.28-30.84-42.31-14a10.15,10.15,0,0,1-3,3,5.44,5.44,0,0,1-2.51.91c-2.09.17-4.09-.8-5.9-1.71a2.3,2.3,0,0,0-.48-.17A46.49,46.49,0,0,1,374.49,519.54Zm39.22,30.55c-4.81,17.79-38.65,11.84-32.78-8.79C386.16,520.5,418.44,532.27,413.71,550.09Zm-43.29-8.38a5.41,5.41,0,0,1,1.72,2,10.15,10.15,0,0,1,1.05,4.09c1.15,20.08,29.68,26.87,43.66,9,1.92-2.45,3.08-1.51,27.82,5.84-15.54,1.43-27.92,18.42-29.52,34.6C378,594.45,369,580.91,364.47,556.92a46.31,46.31,0,0,1-.52-16.77,2.75,2.75,0,0,0,.5.09C366.48,540.35,368.69,540.52,370.42,541.71ZM393.72,600c-17.33,8.75-17.68,13-33.37,2.94a3.32,3.32,0,0,1,0-5.88C376,587.05,376.39,591.25,393.72,600ZM363.5,576.48c1-.13,2,1.64,6.73,9.09-4.4,2-9.07,3.62-13.13,6.2a11.44,11.44,0,0,0-4.67,5.24H335.32C337.09,589.58,345.09,580,363.5,576.48ZM336,585c-3.7,3.89-5.77,7.84-6.29,12H312.32c2.62-21.51,28.37-39.12,46.92-39.08l2.94,13.3C354.54,573.53,346.53,573.85,336,585Zm22.37-32.74c-1,.27-1.87.5-2.76.72-4.86,1.18-10.06,1.78-14.74,3.69C318,566,307.94,581.46,307.29,597H291.8c3.55-32.71,35.68-62.6,66.54-56.74Zm-51,50.76c.65,15.55,10.74,31,33.55,40.37,4.68,1.91,9.88,2.51,14.74,3.69.89.22,1.73.45,2.76.72v12c-30.86,5.86-63-24-66.54-56.74Zm5,0h17.36c.52,4.2,2.59,8.15,6.29,12,10.56,11.12,18.57,11.44,26.21,13.74l-2.94,13.3C340.69,642.11,314.94,624.5,312.32,603Zm23,0h17.11a11.44,11.44,0,0,0,4.67,5.24c4.06,2.58,8.73,4.24,13.13,6.2-4.77,7.45-5.75,9.22-6.73,9.09C345.09,620,337.09,610.42,335.32,603Zm29.15,40.09c4.5-24,13.53-37.53,50.68-40.38,1.6,16.18,14,33.17,29.52,34.6-24.74,7.35-25.9,8.29-27.82,5.84-14-17.86-42.51-11.07-43.66,9a10.15,10.15,0,0,1-1.05,4.09,5.49,5.49,0,0,1-1.72,2c-1.73,1.19-3.94,1.36-6,1.47a2.75,2.75,0,0,0-.5.09A46.31,46.31,0,0,1,364.47,643.08Zm16.46,15.62c-5.87-20.63,28-26.58,32.78-8.79S386.16,679.5,380.93,658.7ZM366.13,666c1.81-.91,3.81-1.88,5.9-1.71a5.44,5.44,0,0,1,2.51.91,10.15,10.15,0,0,1,3,3c11,16.82,39.14,8.43,42.31-14,.44-3.09,1.92-2.86,27-8.86-12.74,9-15,29.91-8.26,44.73-33.6,16.1-48.19,8.9-64.08-9.63a46.49,46.49,0,0,1-8.84-14.27A2.3,2.3,0,0,0,366.13,666Zm19.4,48.3a11.47,11.47,0,0,0-1.43,6.87l-14.81,8.55c-2.18-7.31-.07-19.64,14.13-31.85.79-.61,2.52.43,10.38,4.5C391,706.29,387.75,710.06,385.53,714.32Zm1.56,12.06a11.53,11.53,0,0,0,6.67,2.2c4.81.2,9.68-.7,14.47-1.2-.4,8.84-.37,10.86-1.29,11.24-17.68,6.19-29.41,1.86-34.66-3.69ZM379.66,694c-5.47,5.81-12.24,10.08-15.84,25-1.25,5.21-1.06,9.67.58,13.57l-15,8.68c-8.48-19.93,5-48.06,21.1-57.31Zm-12.27,43.75c2.55,3.37,6.32,5.77,11.47,7.29,14.71,4.34,21.8.61,29.56-1.22l4.11,13c-16,9.3-47.15,6.92-60.17-10.39Zm26.53-15.38a3.32,3.32,0,0,1-2.93-5.09c8.58-16.52,11-13,30.36-14.14C410.72,719.39,412.52,723.19,393.92,722.37Zm47.35-27.61C450.75,708,470,716.5,484.13,710c-17.75,18.74-18.29,20.14-21.18,19-21-8.48-42.35,11.67-33.3,29.63a10.21,10.21,0,0,1,1.14,4.07,5.33,5.33,0,0,1-.47,2.63c-.9,1.89-2.73,3.15-4.43,4.26a3.09,3.09,0,0,0-.39.33,46.68,46.68,0,0,1-7.94-14.79C409.47,732.05,410.52,715.81,441.27,694.76Zm-1.64,65.61c-15.4-14.93,10.93-37,24-24S454.56,775.77,439.63,760.37Zm-9.16,13.74c1.11-1.7,2.37-3.53,4.26-4.43a5.33,5.33,0,0,1,2.63-.47,10.21,10.21,0,0,1,4.07,1.14c18,9,38.11-12.27,29.63-33.3-1.16-2.89.24-3.43,19-21.18-6.54,14.17,2,33.39,15.2,42.86-21.05,30.75-37.28,31.8-60.31,23.71a46.68,46.68,0,0,1-14.79-7.94A2.44,2.44,0,0,0,430.47,774.11Zm40.95,32.13a11.53,11.53,0,0,0,2.2,6.67l-8.55,14.81c-5.55-5.25-9.88-17-3.69-34.66.38-.92,2.4-.89,11.24-1.29C472.12,796.56,471.22,801.43,471.42,806.24Zm7.39,9.66a11.47,11.47,0,0,0,6.87-1.43c4.26-2.22,8-5.44,11.93-8.27,4.07,7.86,5.11,9.59,4.5,10.38-12.21,14.2-24.54,16.31-31.85,14.13Zm18.05-37.25c-1.09,19.38,2.38,21.78-14.14,30.36a3.32,3.32,0,0,1-5.09-2.93C476.81,787.48,480.61,789.28,496.86,778.65Zm-53.68,8.82,13,4.11c-1.83,7.76-5.56,14.85-1.22,29.56,1.52,5.15,3.92,8.92,7.29,11.47l-8.68,15C436.26,834.62,433.88,803.52,443.18,787.47Zm24.25,48.13c3.9,1.64,8.36,1.83,13.57.58,14.92-3.6,19.19-10.37,25-15.84l10.06,9.2c-9.25,16.08-37.38,29.58-57.31,21.1Zm42.48-74.17c14.82,6.71,35.72,4.48,44.73-8.26-6,25.1-5.77,26.58-8.86,27-22.45,3.17-30.84,31.28-14,42.31a10.15,10.15,0,0,1,3,3,5.44,5.44,0,0,1,.91,2.51c.17,2.09-.8,4.09-1.71,5.9a2.3,2.3,0,0,0-.17.48,46.49,46.49,0,0,1-14.27-8.84C501,809.62,493.81,795,509.91,761.43Zm40.18,24.85c17.79,4.82,11.84,38.66-8.79,32.79C520.5,813.84,532.27,781.56,550.09,786.28Zm-9.85,49.27c.11-2,.28-4.24,1.47-6a5.41,5.41,0,0,1,2-1.72,10.15,10.15,0,0,1,4.09-1.05c20.08-1.15,26.87-29.68,9-43.66-2.45-1.92-1.51-3.08,5.84-27.82,1.43,15.54,18.42,27.92,34.6,29.52C594.45,822,580.91,831,556.92,835.53a46.31,46.31,0,0,1-16.77.52A2.75,2.75,0,0,0,540.24,835.55Zm27.19-101.18c.59-2.18,3.53-1.76,9.47-1.7a2.17,2.17,0,0,0,0,.26,7,7,0,0,1,0,1.17c-4,23.73,9.57,35.61,23.12,35.61s27.09-11.88,23.12-35.61a7,7,0,0,1,0-1.17,2.17,2.17,0,0,0,0-.26c5.94-.06,8.88-.48,9.47,1.7,6.27,23.52-12.73,42.87-32.57,42.83S561.16,757.89,567.43,734.37Zm91.27,84.7c-20.63,5.87-26.58-28-8.78-32.79S679.5,813.84,658.7,819.07Zm5.61,8.9a5.44,5.44,0,0,1,.91-2.51,10.15,10.15,0,0,1,3-3c16.82-11,8.43-39.14-14-42.31-3.09-.44-2.86-1.92-8.86-27,9,12.74,29.91,15,44.73,8.26,16.1,33.6,8.9,48.19-9.63,64.08a46.49,46.49,0,0,1-14.27,8.84,2.3,2.3,0,0,0-.17-.48C665.11,832.06,664.14,830.06,664.31,828Zm50-13.5a11.47,11.47,0,0,0,6.87,1.43l8.55,14.81c-7.31,2.18-19.64.07-31.85-14.13-.61-.79.43-2.52,4.5-10.38C706.29,809,710.06,812.25,714.32,814.47Zm-11.18-35.82c16.25,10.63,20.05,8.83,19.23,27.43a3.32,3.32,0,0,1-5.09,2.93C700.76,800.43,704.23,798,703.14,778.65Zm24.24,13.12c8.84.4,10.86.37,11.24,1.29,6.19,17.68,1.86,29.41-3.69,34.66l-8.55-14.81a11.53,11.53,0,0,0,2.2-6.67C728.78,801.43,727.88,796.56,727.38,791.77ZM694,820.34c5.81,5.47,10.08,12.24,25,15.84,5.21,1.25,9.67,1.06,13.57-.58l8.68,15c-19.93,8.48-48.06-5-57.31-21.1Zm43.75,12.27c3.37-2.55,5.77-6.32,7.29-11.47,4.34-14.71.61-21.8-1.22-29.56l13-4.11c9.3,16,6.92,47.15-10.39,60.17Zm17.32-50.17c-23,8.09-39.26,7-60.31-23.71C708,749.26,716.5,730,710,715.87c18.74,17.75,20.14,18.29,19,21.18-8.48,21,11.67,42.35,29.63,33.3a10.21,10.21,0,0,1,4.07-1.14,5.33,5.33,0,0,1,2.63.47c1.89.9,3.15,2.73,4.26,4.43a3.09,3.09,0,0,0,.33.39A46.68,46.68,0,0,1,755.07,782.44Zm-18.7-46.07c13.07-13,39.4,9.07,24,24C745.44,775.77,723.37,749.44,736.37,736.37Zm33.31,28.9a5.33,5.33,0,0,1-.47-2.63,10.21,10.21,0,0,1,1.14-4.07c9-18-12.27-38.11-33.3-29.63-2.89,1.16-3.43-.24-21.18-19,14.17,6.54,33.38-2,42.86-15.2,30.75,21,31.8,37.29,23.71,60.31a46.68,46.68,0,0,1-7.94,14.79,3.09,3.09,0,0,0-.39-.33C772.41,768.42,770.58,767.16,769.68,765.27Zm9-62.13c19.38,1.09,21.78-2.38,30.36,14.14a3.32,3.32,0,0,1-2.93,5.09C787.48,723.19,789.28,719.39,778.65,703.14Zm37.25,18.05a11.47,11.47,0,0,0-1.43-6.87c-2.22-4.26-5.44-8-8.27-11.93,7.86-4.07,9.59-5.11,10.38-4.5,14.2,12.21,16.31,24.54,14.13,31.85Zm11.82,13.74c-5.25,5.55-17,9.88-34.66,3.69-.92-.38-.89-2.4-1.29-11.24,4.79.5,9.66,1.4,14.47,1.2a11.53,11.53,0,0,0,6.67-2.2Zm-36.14,8.89c7.76,1.83,14.85,5.56,29.56,1.22,5.15-1.52,8.92-3.92,11.47-7.29l15,8.68c-13,17.31-44.12,19.69-60.17,10.39Zm44-11.25c1.64-3.9,1.83-8.36.58-13.57-3.6-14.92-10.37-19.19-15.84-25l9.2-10.06c16.08,9.25,29.58,37.38,21.1,57.31Zm-10.09-52.11C809.62,699,795,706.19,761.43,690.09c6.71-14.82,4.48-35.72-8.26-44.73,25.1,6,26.58,5.77,27,8.86,3.17,22.45,31.28,30.84,42.31,14a10.15,10.15,0,0,1,3-3,5.44,5.44,0,0,1,2.51-.91c2.09-.17,4.09.8,5.9,1.71a2.3,2.3,0,0,0,.48.17A46.49,46.49,0,0,1,825.51,680.46Zm-39.22-30.54c4.81-17.8,38.65-11.85,32.78,8.78C813.84,679.5,781.56,667.73,786.29,649.92Zm43.29,8.37a5.49,5.49,0,0,1-1.72-2,10.15,10.15,0,0,1-1.05-4.09c-1.15-20.08-29.68-26.87-43.66-9-1.92,2.45-3.08,1.51-27.82-5.84,15.54-1.43,27.92-18.42,29.52-34.6,37.15,2.85,46.18,16.39,50.68,40.38a46.31,46.31,0,0,1,.52,16.77,2.75,2.75,0,0,0-.5-.09C833.52,659.65,831.31,659.48,829.58,658.29Zm6.92-34.77c-1,.13-2-1.64-6.73-9.09,4.4-2,9.07-3.62,13.13-6.2a11.44,11.44,0,0,0,4.67-5.24h17.11C862.91,610.42,854.91,620,836.5,623.52ZM864,615c3.7-3.89,5.77-7.84,6.29-12h17.36c-2.62,21.51-28.37,39.12-46.92,39.08l-2.94-13.3C845.46,626.47,853.47,626.15,864,615Zm-22.37,32.74c1-.27,1.87-.5,2.76-.72,4.86-1.18,10.06-1.78,14.75-3.69C882,634,892.06,618.54,892.71,603H908.2c-3.55,32.71-35.68,62.6-66.54,56.74ZM892.71,597c-.65-15.55-10.74-31-33.54-40.37-4.69-1.91-9.89-2.51-14.75-3.69-.89-.22-1.73-.45-2.76-.72v-12c30.86-5.86,63,24,66.54,56.74Zm77.63-45.21c-19.42,22.73-13,25.7-64.79-9.27C926.41,530.92,944.93,550.14,970.34,551.8ZM851.08,532.72c19.66-17,34.63-33.29,56.61-25.6,4.3,1.5,9.48,3.69,10.56,7.6s-2.37,8.42-5.34,11.87C897.72,544.24,876.6,537.61,851.08,532.72Zm66.8.45c13.35-19.72,9.06-3.13,42.53-5.07,12.35-.71,21.13-2.71,30.35-9.55C961.4,562.93,975.17,542.24,917.88,533.17Zm9-20.76c-2.69-15.14,43.45-48.52,77.25-20.7C988.78,532.7,932.13,526.87,926.89,512.41Zm21.18-30.35c-30,15.06-17.94,27.28-39.36,16.88,45.08-36.5,22.81-47.54,70.42-23.78C967.73,473.85,959.13,476.5,948.07,482.06ZM893.36,497c27.4-56.21,23.28-50.4,51.46-40.42C923.65,470.71,917.22,496.62,893.36,497Zm-22.59,11.5c18.7-33.69-11-52.51,42.49-58.34C889,475.55,902.41,490,870.77,508.5Zm-31.62,22.4-6-10.36c.75-.75,1.37-1.37,2-2,3.62-3.45,7.83-6.57,10.92-10.57C861.21,488.48,862.2,470,855,456.24l13.41-7.75C881.69,478.59,868.8,520.54,839.15,530.9ZM852,451.05c-8.34-13.14-24.81-21.5-49.24-18.18-5,.68-9.81,2.76-14.61,4.17-.88.26-1.73.48-2.75.76l-6-10.36c23.79-20.5,66.57-10.68,86,15.87Zm-37.37-39.8c31.86-18.13,37.62.73,71.76-7.62C854.6,447,853.15,411.91,814.63,411.25Zm21.25-13.8c12.26-20.48,37.91-13.09,60.74-24.36C891.16,402.48,898.26,401.82,835.88,397.45Zm6-14.27c1.7-23.75,6.28-7.23,34.29-25.65,10.35-6.8,16.94-12.91,21.52-23.45C894.45,387.2,896,362.39,841.88,383.18ZM839.3,360.7c-9.9-11.77,13.37-63.74,56.55-56.55C903,347.33,851.07,370.6,839.3,360.7Zm3.17-36.88c-18.42,28-1.91,32.6-25.65,34.3,20.79-54.15-4-52.57,49.1-55.8C855.38,306.89,849.27,313.48,842.47,323.82Zm-39.92,40.3c-4.37-62.38-5-55.28,24.36-60.74C815.64,326.21,823,351.86,802.55,364.12Zm17.48,1.6c4.47-.85,10.06-1.55,13,1.3s2.15,8.48,1.3,13c-4.33,22.88-25.93,27.7-50.48,36.23C792.33,391.65,797.15,370.05,820,365.72Zm-47.47,54.86-10.36-6c.28-1,.5-1.87.76-2.75,1.41-4.8,3.49-9.6,4.17-14.61,3.32-24.43-5-40.9-18.18-49.24l7.74-13.41C783.24,354,793.06,396.79,772.56,420.58ZM743.76,345c-13.79-7.21-32.24-6.22-51.73,8.87-4,3.09-7.12,7.3-10.57,10.92-.63.66-1.25,1.28-2,2l-10.36-6c10.36-29.65,52.31-42.54,82.41-29.25Zm-76.48,3.91c-4.89-25.52-11.52-46.64,6.13-61.83,3.45-3,7.94-6.37,11.86-5.34s6.11,6.26,7.61,10.56C700.57,314.29,684.27,329.26,667.28,348.92Zm-9.81-54.47c-35-51.84-32-45.37-9.27-64.79C649.86,255.07,669.08,273.59,657.47,294.45Zm-1.32,25.3c-19.83-33-51-16.73-29.28-66C636.7,287.53,655.92,283.09,656.15,319.75Zm3.58,38.59h-12c-.27-1-.5-1.87-.72-2.76-1.18-4.86-1.78-10.06-3.69-14.74C634,318,618.54,307.94,603,307.29V291.8C635.7,295.35,665.59,327.48,659.73,358.34Zm-17.66.9-13.3,2.94c-2.3-7.64-2.62-15.65-13.74-26.21-3.89-3.7-7.84-5.77-12-6.29V312.32C624.5,314.94,642.11,340.69,642.07,359.24Zm-18.55,4.26c.13,1-1.64,2-9.09,6.73-2-4.4-3.62-9.07-6.2-13.13a11.44,11.44,0,0,0-5.24-4.67V335.32C610.42,337.09,620,345.09,623.52,363.5ZM600,393.72c-8.75-17.33-13-17.68-2.94-33.37a3.32,3.32,0,0,1,5.88,0C613,376,608.75,376.39,600,393.72Zm-3-86.43c-15.55.65-31,10.74-40.37,33.55-1.91,4.68-2.51,9.88-3.69,14.74-.22.89-.45,1.73-.72,2.76h-12c-5.86-30.86,24-63,56.74-66.54Zm-53.16,12.46c.23-36.66,19.45-32.22,29.28-66C594.82,303,563.68,286.72,543.85,319.75Zm-1.32-25.3c-11.61-20.86,7.61-39.38,9.27-64.79C574.53,249.08,577.5,242.61,542.53,294.45Zm-15.94-7.36c17.65,15.19,11,36.31,6.13,61.83-17-19.66-33.29-34.63-25.6-56.61,1.5-4.3,3.69-9.48,7.6-10.56S523.14,284.12,526.59,287.09Zm4.31,73.76-10.36,6c-.75-.75-1.37-1.37-2-2C515.09,361.18,512,357,508,353.88,488.48,338.79,470,337.8,456.24,345l-7.75-13.41C478.59,318.31,520.54,331.2,530.9,360.85ZM451.05,348c-13.14,8.34-21.5,24.81-18.18,49.24.68,5,2.76,9.81,4.17,14.61.26.88.48,1.73.76,2.75l-10.36,6c-20.5-23.79-10.68-66.57,15.87-86ZM416.2,416.2c-24.55-8.53-46.15-13.35-50.48-36.23-.85-4.47-1.55-10.06,1.3-13s8.48-2.15,13-1.3C402.85,370.05,407.67,391.65,416.2,416.2Zm-18.75-52.08c-20.48-12.26-13.09-37.91-24.36-60.74C402.48,308.84,401.82,301.74,397.45,364.12Zm-14.27-6c-23.74-1.7-7.23-6.28-25.65-34.3-6.8-10.34-12.91-16.93-23.45-21.5C387.2,305.55,362.39,304,383.18,358.12ZM360.7,360.7c-11.77,9.9-63.74-13.37-56.55-56.55C347.33,297,370.6,348.93,360.7,360.7Zm-36.87-3.17c28,18.42,32.59,1.9,34.29,25.65-54.15-20.79-52.57,4-55.81-49.1C306.89,344.62,313.48,350.73,323.83,357.53Zm40.29,39.92c-62.38,4.37-55.28,5-60.74-24.36C326.21,384.36,351.86,377,364.12,397.45Zm21.25,13.8c-38.52.66-40,35.77-71.76-7.62C347.75,412,353.51,393.12,385.37,411.25Zm35.21,16.19-6,10.36c-1-.28-1.87-.5-2.75-.76-4.8-1.41-9.6-3.49-14.61-4.17-24.43-3.32-40.9,5-49.24,18.18l-13.41-7.74C354,416.76,396.79,406.94,420.58,427.44ZM345,456.24c-7.21,13.79-6.22,32.24,8.87,51.73,3.09,4,7.3,7.12,10.92,10.57.66.63,1.28,1.25,2,2l-6,10.36c-29.65-10.36-42.54-52.31-29.25-82.41Zm3.91,76.48c-25.52,4.89-46.64,11.52-61.83-6.13-3-3.45-6.37-7.94-5.34-11.86s6.26-6.11,10.56-7.61C314.29,499.43,329.26,515.73,348.92,532.72ZM329.23,508.5C297.59,490,311,475.55,286.74,450.16,340.22,456,310.53,474.81,329.23,508.5ZM306.64,497c-23.86-.38-30.29-26.29-51.46-40.42C283.36,446.6,279.24,440.79,306.64,497Zm-15.35,1.94c-21.42,10.4-9.41-1.82-39.36-16.88-11.06-5.56-19.66-8.21-31.06-6.9C268.48,451.4,246.21,462.44,291.29,498.94Zm-18.18,13.47c-5.24,14.46-61.89,20.29-77.25-20.7C229.66,463.89,275.8,497.27,273.11,512.41ZM239.59,528.1c33.47,1.94,29.18-14.65,42.53,5.07-57.29,9.07-43.52,29.76-72.88-14.62C218.46,525.39,227.24,527.39,239.59,528.1Zm54.86,14.43c-51.84,35-45.37,32-64.79,9.27C255.07,550.14,273.59,530.92,294.45,542.53Zm25.3,1.32c-33,19.83-16.73,51-66,29.28C287.53,563.3,283.09,544.08,319.75,543.85Zm0,112.3c-36.66-.23-32.22-19.45-66-29.28C303,605.18,286.72,636.32,319.75,656.15Zm29.17,11.13c-19.66,17-34.63,33.29-56.61,25.6-4.3-1.5-9.48-3.69-10.56-7.6s2.37-8.42,5.34-11.87C302.28,655.76,323.4,662.39,348.92,667.28Zm-54.47-9.81c-20.86,11.61-39.38-7.61-64.79-9.27C249.08,625.47,242.61,622.5,294.45,657.47Zm-12.33,9.36c-13.35,19.71-9.06,3.13-42.53,5.07-12.35.71-21.13,2.71-30.35,9.55C238.6,637.07,224.83,657.76,282.12,666.83Zm-9,20.76c2.69,15.14-43.45,48.52-77.25,20.7C211.22,667.3,267.87,673.13,273.11,687.59Zm-21.18,30.35c29.95-15.06,17.94-27.28,39.36-16.88-45.08,36.5-22.81,47.53-70.42,23.78C232.27,726.15,240.87,723.5,251.93,717.94ZM306.64,703c-27.4,56.21-23.28,50.4-51.46,40.42C276.35,729.29,282.78,703.38,306.64,703Zm22.59-11.5c-18.7,33.69,11,52.51-42.49,58.34C311,724.45,297.59,710,329.23,691.5Zm31.62-22.4,6,10.36c-.75.75-1.37,1.37-2,2C361.18,684.91,357,688,353.88,692,338.79,711.52,337.8,730,345,743.76l-13.41,7.75C318.31,721.41,331.2,679.46,360.85,669.1ZM348,749c8.34,13.14,24.81,21.5,49.24,18.18,5-.68,9.81-2.76,14.61-4.17.88-.26,1.73-.48,2.75-.76l6,10.36c-23.79,20.5-66.57,10.68-86-15.87Zm37.37,39.8c-31.86,18.13-37.62-.73-71.76,7.62C345.4,753,346.85,788.09,385.37,788.75Zm-21.25,13.8c-12.26,20.48-37.91,13.09-60.74,24.36C308.84,797.52,301.74,798.18,364.12,802.55Zm-6,14.27c-1.7,23.75-6.28,7.23-34.29,25.65-10.35,6.8-16.94,12.91-21.52,23.45C305.55,812.8,304,837.61,358.12,816.82Zm2.58,22.48c9.9,11.77-13.37,63.74-56.55,56.55C297,852.67,348.93,829.4,360.7,839.3Zm-3.17,36.87c18.42-28,1.91-32.59,25.65-34.29-20.79,54.15,4,52.57-49.1,55.8C344.62,893.11,350.73,886.52,357.53,876.17Zm39.92-40.29c4.37,62.38,5,55.28-24.36,60.74C384.36,873.79,377,848.14,397.45,835.88ZM380,834.28c-4.47.85-10.06,1.55-13-1.3s-2.15-8.48-1.3-13c4.33-22.88,25.93-27.7,50.48-36.23C407.67,808.35,402.85,830,380,834.28Zm47.47-54.86,10.36,6c-.28,1-.5,1.87-.76,2.75-1.41,4.8-3.49,9.6-4.17,14.61-3.32,24.42,5,40.9,18.18,49.24l-7.74,13.41C416.76,846,406.94,803.21,427.44,779.42ZM456.24,855c13.79,7.21,32.24,6.22,51.73-8.87,4-3.09,7.12-7.3,10.57-10.92.63-.66,1.25-1.28,2-2l10.36,6c-10.36,29.65-52.31,42.54-82.41,29.25Zm76.48-3.91c4.89,25.52,11.52,46.64-6.13,61.83-3.45,3-7.94,6.37-11.86,5.34s-6.11-6.26-7.61-10.56C499.43,885.71,515.73,870.74,532.72,851.08Zm9.81,54.47c35,51.84,32,45.37,9.27,64.79C550.14,944.93,530.92,926.41,542.53,905.55Zm1.32-25.3c19.83,33,51,16.73,29.28,66C563.3,912.47,544.08,916.91,543.85,880.25Zm-3.58-38.59h12c.27,1,.5,1.87.72,2.76,1.18,4.86,1.78,10.06,3.69,14.74C566,882,581.46,892.06,597,892.71V908.2C564.3,904.65,534.41,872.52,540.27,841.66Zm17.66-.9,13.3-2.94c2.3,7.64,2.62,15.65,13.74,26.21,3.89,3.7,7.84,5.77,12,6.29v17.36C575.5,885.06,557.89,859.31,557.93,840.76Zm18.55-4.26c-.13-1,1.64-2,9.09-6.74,2,4.41,3.62,9.08,6.2,13.14a11.44,11.44,0,0,0,5.24,4.67v17.11C589.58,862.91,580,854.91,576.48,836.5ZM600,806.28c8.75,17.33,13,17.68,2.94,33.37a3.32,3.32,0,0,1-5.88,0C587.05,824,591.25,823.61,600,806.28Zm3,86.43c15.55-.65,31-10.74,40.37-33.55,1.91-4.68,2.51-9.88,3.69-14.74.22-.89.45-1.73.72-2.76h12c5.86,30.86-24,63-56.74,66.54Zm53.16-12.46c-.23,36.66-19.45,32.22-29.28,66C605.18,897,636.32,913.28,656.15,880.25Zm1.32,25.3c11.61,20.86-7.61,39.38-9.27,64.79C625.47,950.92,622.5,957.39,657.47,905.55Zm15.94,7.36c-17.65-15.19-11-36.31-6.13-61.83,17,19.66,33.29,34.63,25.6,56.61-1.5,4.3-3.69,9.48-7.6,10.56S676.86,915.88,673.41,912.91Zm-4.31-73.76,10.36-6c.75.75,1.37,1.37,2,2,3.45,3.62,6.57,7.83,10.57,10.92C711.52,861.21,730,862.2,743.76,855l7.75,13.41C721.41,881.69,679.46,868.8,669.1,839.15ZM749,852c13.14-8.34,21.5-24.82,18.18-49.24-.68-5-2.76-9.81-4.17-14.61-.26-.88-.48-1.73-.76-2.75l10.36-6c20.5,23.79,10.68,66.57-15.87,86Zm34.85-68.2c24.55,8.53,46.15,13.35,50.48,36.23.85,4.47,1.55,10.06-1.3,13s-8.48,2.15-13,1.3C797.15,830,792.33,808.35,783.8,783.8Zm18.75,52.08c20.48,12.26,13.09,37.91,24.36,60.74C797.52,891.16,798.18,898.26,802.55,835.88Zm14.27,6c23.74,1.7,7.23,6.28,25.65,34.29,6.8,10.35,12.91,16.94,23.45,21.51C812.8,894.45,837.61,896,816.82,841.88Zm22.48-2.58c11.77-9.9,63.74,13.37,56.55,56.55C852.67,903,829.4,851.07,839.3,839.3Zm36.87,3.17c-28-18.42-32.59-1.9-34.29-25.65,54.15,20.79,52.57-4,55.81,49.1C893.11,855.38,886.52,849.27,876.17,842.47Zm-40.29-39.92c62.38-4.37,55.28-5,60.74,24.36C873.79,815.64,848.14,823,835.88,802.55Zm-21.25-13.8c38.52-.66,40-35.77,71.76,7.62C852.25,788,846.49,806.88,814.63,788.75Zm-35.21-16.19,6-10.36c1,.28,1.87.5,2.75.76,4.8,1.41,9.6,3.49,14.61,4.17,24.43,3.32,40.9-5,49.24-18.18l13.41,7.74C846,783.24,803.21,793.06,779.42,772.56ZM855,743.76c7.21-13.79,6.22-32.24-8.87-51.73-3.09-4-7.3-7.12-10.92-10.57-.66-.63-1.28-1.25-2-2l6-10.36c29.65,10.36,42.54,52.31,29.25,82.41Zm-3.91-76.48c25.52-4.89,46.64-11.52,61.83,6.13,3,3.45,6.37,7.94,5.34,11.86s-6.26,6.11-10.56,7.61C885.71,700.57,870.74,684.27,851.08,667.28Zm19.69,24.22c31.64,18.53,18.19,33,42.49,58.34C859.78,744,889.47,725.19,870.77,691.5ZM893.36,703c23.86.38,30.29,26.29,51.46,40.42C916.64,753.4,920.76,759.21,893.36,703Zm15.35-1.94c21.42-10.4,9.41,1.82,39.36,16.88,11.06,5.56,19.66,8.21,31.06,6.9C931.52,748.59,953.79,737.56,908.71,701.06Zm18.18-13.47c5.24-14.46,61.89-20.29,77.25,20.7C970.34,736.11,924.2,702.73,926.89,687.59Zm33.52-15.69c-33.47-1.94-29.18,14.64-42.53-5.07,57.29-9.07,43.52-29.76,72.88,14.62C981.54,674.61,972.76,672.61,960.41,671.9Zm-54.86-14.43c51.84-35,45.37-32,64.79-9.27C944.93,649.86,926.41,669.08,905.55,657.47Zm-25.3-1.32c33-19.83,16.73-51,66-29.28C912.47,636.7,916.91,655.92,880.25,656.15Zm0-112.3c36.66.23,32.22,19.45,66,29.28C897,594.82,913.28,563.68,880.25,543.85Zm139.94-59.47c-3,.67-6,1.41-8.9,2.23a8.18,8.18,0,0,1-6.35-.89c-59.25-35.6-82.27-55.61-129.16-32.68L873.67,446C918.82,416.16,930.71,430.76,1020.19,484.38ZM959.1,389.21a14.08,14.08,0,0,1-9.38,1.7c-10.28-1.74-32.92-5.54-33.32-5.75l.64-18.74,57.25,13.27a4.48,4.48,0,0,1,.83.27Zm19-4.06a5.27,5.27,0,0,1-.18.86L960.8,442.23l-16.54-8.82c0-.45,8-22,11.68-31.73a14.06,14.06,0,0,1,6.16-7.28Zm-27.2,15.7c-12.61,38.27-8.94,31.12-26.2,25.49,2.23-5.66,4-9.52,4.85-12.22a3.16,3.16,0,0,1,1.41-1.76C932.65,411.41,937.35,408.69,950.92,400.85Zm29.62,53.79c-18.64-11.3-17.58-4.78,3.34-69.58a10.9,10.9,0,0,1,4.91-6.07l15.93-9.2C1001.75,384.49,985.85,438.07,980.54,454.64Zm21.18-90-15.93,9.19a10.87,10.87,0,0,1-7.71,1.22c-66.58-14.28-61.46-10.1-61.92-31.9C933.16,346.81,987.51,359.83,1001.72,364.61Zm-53.79,31.05c-13.57,7.84-18.28,10.55-19.94,11.52a3.15,3.15,0,0,1-2.23.34c-2.78-.58-7-1-13-1.91C916.51,387.85,908.48,387.45,947.93,395.66Zm-22.87,16.66c-7.66,16.83-.56,12.91-25.94,15C913.61,406.35,906.66,410.54,925.06,412.32Zm-14.84-118.4c1.7,104.3,8.39,121.89-40,146.1l-5.07-5.37c43.3-29.15,37.47-59.08,36.27-128.2a8.12,8.12,0,0,1,2.41-5.94Q907.12,297.29,910.22,293.92Zm-4.14-4.14q-3.37,3.11-6.59,6.37a8.12,8.12,0,0,1-5.94,2.41c-69.12-1.2-99-7-128.2,36.27L760,329.76C784.19,281.39,801.78,288.08,906.08,289.78Zm-97-39.5a14.08,14.08,0,0,1,1.7-9.38l9.25-16a4.48,4.48,0,0,1,.27.83L833.58,283l-18.74.64C814.63,283.2,810.83,260.56,809.09,250.28Zm-14.7,37c-.91-6-1.33-10.23-1.91-13a3.15,3.15,0,0,1,.34-2.23c1-1.66,3.68-6.37,11.51-19.94C812.55,291.52,812.15,283.49,794.39,287.25ZM805.6,237.9a14.06,14.06,0,0,1-7.28,6.16c-9.77,3.64-31.28,11.67-31.73,11.68l-8.82-16.54L814,222.06a5.27,5.27,0,0,1,.86-.18Zm-6.45,11.18c-7.84,13.57-10.56,18.27-11.51,19.94a3.16,3.16,0,0,1-1.76,1.41c-2.7.89-6.56,2.62-12.22,4.85C768,258,760.88,261.69,799.15,249.08Zm-11.47,25.86c1.78,18.4,6,11.45-15,25.94C774.77,275.5,770.85,282.6,787.68,274.94Zm47.71-76.66c4.78,14.21,17.8,68.56,21.49,85.56-21.8-.46-17.62,4.66-31.9-61.92a10.86,10.86,0,0,1,1.22-7.71Zm-5.18-3L821,211.21a10.9,10.9,0,0,1-6.07,4.91c-64.8,20.92-58.28,22-69.58,3.34C761.93,214.15,815.51,198.26,830.21,195.28Zm-116.82-6.57c.82-3,1.56-5.91,2.23-8.9,53.62,89.48,68.21,101.37,38.42,146.52L747,324.22c22.93-46.89,2.92-69.91-32.68-129.16A8.18,8.18,0,0,1,713.39,188.71Zm-25.8,84.4c-14.46-5.24-20.29-61.89,20.7-77.25C736.11,229.66,702.73,275.8,687.59,273.11ZM710,178.3c-.91,2.92-1.75,5.85-2.52,8.81a8.12,8.12,0,0,1-3.94,5.06c-60.46,33.52-89.3,43.44-92.88,95.51l-7.19-1.7C600.2,232,618.79,229,710,178.3ZM603,134.4c11.25,9.93,49.7,50.48,61.4,63.36-19.11,10.5-12.93,12.84-58.59-37.68a10.9,10.9,0,0,1-2.81-7.29Zm0,30.71a5.25,5.25,0,0,1,.66.59l40.11,43-15.9,9.91c-.38-.23-15-17.93-21.64-26a14.09,14.09,0,0,1-3.23-9ZM612,232c-3.79-4.76-6.27-8.19-8.16-10.31a3.09,3.09,0,0,1-.81-2.1c0-1.92,0-7.35,0-23C629.83,226.58,625.47,219.82,612,232ZM600,254.6c-10.9-23-10.74-14.9,0-29.95C610.74,239.7,610.9,231.59,600,254.6Zm-3-58.08c0,15.67,0,21.1,0,23a3.09,3.09,0,0,1-.81,2.1c-1.89,2.12-4.37,5.55-8.16,10.31C574.53,219.82,570.17,226.58,597,196.52Zm-24.87,22-15.9-9.91,40.11-43a5.25,5.25,0,0,1,.66-.59v18.5a14.09,14.09,0,0,1-3.23,9C587.14,200.63,572.52,218.33,572.14,218.56ZM597,134.4v18.39a10.9,10.9,0,0,1-2.81,7.29c-45.66,50.52-39.48,48.18-58.59,37.68C547.31,184.88,585.76,144.33,597,134.4ZM596.57,286l-7.19,1.7c-3.58-52.07-32.42-62-92.88-95.51a8.12,8.12,0,0,1-3.94-5.06c-.77-3-1.61-5.89-2.52-8.81C581.21,229,599.8,232,596.57,286ZM491.71,195.86c41,15.36,35.16,72,20.7,77.25C497.27,275.8,463.89,229.66,491.71,195.86Zm-7.33-16.05c.67,3,1.41,5.95,2.23,8.9a8.18,8.18,0,0,1-.89,6.35c-35.6,59.25-55.61,82.27-32.68,129.16L446,326.33C416.16,281.18,430.76,269.29,484.38,179.81Zm-58,95.47c-5.66-2.23-9.52-4-12.22-4.85a3.16,3.16,0,0,1-1.76-1.41c-.95-1.67-3.67-6.37-11.51-19.94C439.13,261.69,432,258,426.34,275.28Zm1,25.6c-20.95-14.49-16.76-7.54-15-25.94C429.15,282.6,425.23,275.5,427.3,300.88Zm-38.09-60a14.08,14.08,0,0,1,1.7,9.38c-1.74,10.28-5.54,32.92-5.75,33.32L366.42,283l13.27-57.25a4.48,4.48,0,0,1,.27-.83Zm-4.06-19a5.27,5.27,0,0,1,.86.18l56.22,17.14-8.82,16.54c-.45,0-22-8-31.73-11.68a14.06,14.06,0,0,1-7.28-6.16Zm10.51,30.19c7.84,13.57,10.55,18.28,11.52,19.94a3.15,3.15,0,0,1,.34,2.23c-.58,2.78-1,7-1.91,13C387.85,283.49,387.45,291.52,395.66,252.07Zm59-32.61c-11.3,18.64-4.78,17.58-69.58-3.34a10.9,10.9,0,0,1-6.07-4.91l-9.2-15.93C384.49,198.26,438.07,214.15,454.64,219.46Zm-90-21.18,9.19,15.93a10.86,10.86,0,0,1,1.22,7.71c-14.28,66.58-10.1,61.46-31.9,61.92C346.81,266.84,359.83,212.49,364.61,198.28ZM440,329.76l-5.37,5.07c-29.15-43.3-59.08-37.47-128.2-36.27a8.12,8.12,0,0,1-5.94-2.41q-3.22-3.27-6.59-6.37C398.22,288.08,415.81,281.39,440,329.76ZM289.78,293.92q3.11,3.38,6.37,6.59a8.12,8.12,0,0,1,2.41,5.94c-1.2,69.12-7,99.05,36.28,128.2L329.76,440C281.39,415.81,288.08,398.22,289.78,293.92Zm11.1,133.38c-25.38-2.07-18.28,1.85-25.94-15C293.34,410.54,286.39,406.35,300.88,427.3Zm-63-32.9a14.11,14.11,0,0,1,6.16,7.28c3.64,9.77,11.67,31.28,11.68,31.73l-16.54,8.82L222.06,386a5.27,5.27,0,0,1-.18-.86Zm-13-14.44a4.48,4.48,0,0,1,.83-.27L283,366.42l.64,18.74c-.4.21-23,4-33.32,5.75a14.08,14.08,0,0,1-9.38-1.7Zm24.2,20.89c13.57,7.84,18.27,10.56,19.94,11.51a3.16,3.16,0,0,1,1.41,1.76c.89,2.7,2.62,6.56,4.85,12.22C258,432,261.69,439.12,249.08,400.85Zm38.17,4.76c-6,.91-10.23,1.33-13,1.91a3.15,3.15,0,0,1-2.23-.34c-1.66-1-6.37-3.68-19.94-11.52C291.52,387.45,283.49,387.85,287.25,405.61Zm-3.41-62.49c-.46,21.8,4.66,17.62-61.92,31.9a10.87,10.87,0,0,1-7.71-1.22l-15.93-9.19C212.49,359.83,266.84,346.81,283.84,343.12Zm-88.56,26.67,15.93,9.2a10.9,10.9,0,0,1,4.91,6.07c20.92,64.8,22,58.28,3.34,69.58C214.15,438.07,198.25,384.49,195.28,369.79Zm131,76.17L324.22,453c-46.89-22.93-69.91-2.92-129.16,32.68a8.18,8.18,0,0,1-6.35.89c-3-.82-5.91-1.56-8.9-2.23C269.29,430.76,281.18,416.16,326.33,446ZM178.3,490c2.92.91,5.85,1.75,8.81,2.52a8.12,8.12,0,0,1,5.06,3.94c33.52,60.46,43.44,89.3,95.51,92.88l-1.7,7.19C232,599.8,229,581.21,178.3,490Zm14.29,103.74a14.09,14.09,0,0,1-9,3.23h-18.5a5.25,5.25,0,0,1,.59-.66l43-40.11,9.91,15.9C218.33,572.52,200.63,587.14,192.59,593.78ZM232,588c-4.77,3.79-8.2,6.27-10.32,8.16a3.09,3.09,0,0,1-2.1.81h-23C226.58,570.17,219.82,574.53,232,588Zm-48.35,15a14.09,14.09,0,0,1,9,3.23c8,6.64,25.74,21.26,26,21.64l-9.91,15.9-43-40.11a5.25,5.25,0,0,1-.59-.66Zm12.91,0h23a3.09,3.09,0,0,1,2.1.81c2.12,1.89,5.55,4.37,10.32,8.16C219.82,625.47,226.58,629.83,196.52,603Zm28.13-3c15-10.74,6.94-10.9,29.95,0C231.59,610.9,239.7,610.74,224.65,600Zm-26.89-64.39c10.5,19.11,12.84,12.93-37.68,58.59a10.9,10.9,0,0,1-7.29,2.81H134.4C144.33,585.76,184.88,547.31,197.76,535.61ZM134.4,603h18.39a10.9,10.9,0,0,1,7.29,2.81c50.52,45.66,48.18,39.48,37.68,58.59C184.88,652.69,144.33,614.24,134.4,603Zm151.58.44,1.7,7.19c-52.07,3.58-62,32.42-95.51,92.88a8.12,8.12,0,0,1-5.06,3.94c-3,.77-5.89,1.61-8.81,2.52C229,618.79,232,600.2,286,603.43ZM179.81,715.62c3-.67,5.95-1.41,8.9-2.23a8.18,8.18,0,0,1,6.35.89c59.25,35.6,82.27,55.61,129.16,32.68l2.11,7.08C281.18,783.84,269.29,769.24,179.81,715.62Zm61.09,95.17a14.08,14.08,0,0,1,9.38-1.7c10.28,1.74,32.92,5.54,33.32,5.75L283,833.58l-57.25-13.27a4.48,4.48,0,0,1-.83-.27Zm-19,4.06a5.27,5.27,0,0,1,.18-.86l17.14-56.22,16.54,8.82c0,.45-8,22-11.68,31.73a14.11,14.11,0,0,1-6.16,7.28Zm27.2-15.7c12.61-38.27,8.94-31.12,26.2-25.49-2.23,5.66-4,9.52-4.85,12.22a3.16,3.16,0,0,1-1.41,1.76C267.35,788.59,262.65,791.31,249.08,799.15Zm-29.62-53.79c18.64,11.3,17.58,4.78-3.34,69.58a10.9,10.9,0,0,1-4.91,6.07l-15.93,9.2C198.25,815.51,214.15,761.93,219.46,745.36Zm-21.18,90,15.93-9.19a10.87,10.87,0,0,1,7.71-1.22c66.58,14.28,61.46,10.1,61.92,31.9C266.84,853.19,212.49,840.17,198.28,835.39Zm53.79-31c13.57-7.84,18.28-10.55,19.94-11.52a3.15,3.15,0,0,1,2.23-.34c2.78.58,7,1,13,1.91C283.49,812.15,291.52,812.55,252.07,804.34Zm22.87-16.66c7.66-16.83.56-12.91,25.94-15C286.39,793.65,293.34,789.46,274.94,787.68Zm14.84,118.4c-1.7-104.3-8.39-121.89,40-146.1l5.08,5.37c-43.31,29.15-37.48,59.08-36.28,128.2a8.12,8.12,0,0,1-2.41,5.94Q292.88,902.71,289.78,906.08Zm4.14,4.14q3.38-3.11,6.59-6.37a8.12,8.12,0,0,1,5.94-2.41c69.12,1.2,99.05,7,128.2-36.27l5.37,5.07C415.81,918.61,398.22,911.92,293.92,910.22Zm97,39.5a14.08,14.08,0,0,1-1.7,9.38l-9.25,16a4.48,4.48,0,0,1-.27-.83L366.42,917l18.74-.64C385.37,916.8,389.17,939.44,390.91,949.72Zm14.7-37c.91,6,1.33,10.23,1.91,13a3.15,3.15,0,0,1-.34,2.23c-1,1.66-3.68,6.37-11.52,19.94C387.45,908.48,387.85,916.51,405.61,912.75ZM394.4,962.1a14.06,14.06,0,0,1,7.28-6.16c9.77-3.64,31.28-11.67,31.73-11.68l8.82,16.54L386,977.94a5.27,5.27,0,0,1-.86.18Zm6.45-11.18c7.84-13.57,10.56-18.27,11.51-19.94a3.16,3.16,0,0,1,1.76-1.41c2.7-.89,6.56-2.62,12.22-4.85C432,942,439.13,938.31,400.85,950.92Zm11.47-25.86c-1.78-18.4-6-11.45,15-25.94C425.23,924.5,429.15,917.4,412.32,925.06Zm-47.71,76.66c-4.78-14.21-17.8-68.56-21.49-85.56,21.8.46,17.62-4.66,31.9,61.92a10.86,10.86,0,0,1-1.22,7.71Zm5.18,3,9.2-15.93a10.9,10.9,0,0,1,6.07-4.91c64.8-20.92,58.28-22,69.58-3.34C438.07,985.85,384.49,1001.74,369.79,1004.72Zm116.82,6.57c-.82,3-1.56,5.91-2.23,8.9C430.76,930.71,416.16,918.82,446,873.67l7.08,2.11c-22.93,46.89-2.92,69.91,32.68,129.16A8.18,8.18,0,0,1,486.61,1011.29Zm25.8-84.4c14.46,5.24,20.29,61.89-20.7,77.25C463.89,970.34,497.27,924.2,512.41,926.89ZM490,1021.7c.91-2.92,1.75-5.85,2.52-8.81a8.12,8.12,0,0,1,3.94-5.06c60.46-33.52,89.3-43.44,92.88-95.51l7.19,1.7C599.8,968,581.21,971,490,1021.7Zm107,43.9c-11.25-9.93-49.7-50.48-61.4-63.36,19.11-10.5,12.93-12.84,58.59,37.68a10.9,10.9,0,0,1,2.81,7.29Zm0-30.71a5.25,5.25,0,0,1-.66-.59l-40.11-42.95,15.9-9.91c.38.23,15,17.93,21.64,26a14.09,14.09,0,0,1,3.23,9Zm-9-66.84c3.79,4.76,6.27,8.19,8.16,10.31a3.09,3.09,0,0,1,.81,2.1c0,1.92,0,7.35,0,23C570.17,973.42,574.53,980.18,588,968.05Zm12-22.65c10.9,23,10.74,14.9,0,30C589.26,960.3,589.1,968.41,600,945.4Zm3,58.08c0-15.67,0-21.1,0-23a3.09,3.09,0,0,1,.81-2.1c1.89-2.12,4.37-5.55,8.16-10.31C625.47,980.18,629.83,973.42,603,1003.48Zm24.87-22,15.9,9.91-40.11,42.95a5.25,5.25,0,0,1-.66.59v-18.5a14.09,14.09,0,0,1,3.23-9C612.86,999.37,627.48,981.67,627.86,981.44ZM603,1065.6v-18.39a10.9,10.9,0,0,1,2.81-7.29c45.66-50.52,39.48-48.18,58.59-37.68C652.69,1015.12,614.24,1055.67,603,1065.6ZM603.43,914l7.19-1.7c3.58,52.07,32.42,62,92.88,95.51a8.12,8.12,0,0,1,3.94,5.06c.77,3,1.61,5.89,2.52,8.81C618.79,971,600.2,968,603.43,914Zm104.86,90.12c-41-15.36-35.16-72-20.7-77.25C702.73,924.2,736.11,970.34,708.29,1004.14Zm7.33,16.05c-.67-3-1.41-6-2.23-8.9a8.18,8.18,0,0,1,.89-6.35c35.6-59.25,55.61-82.27,32.68-129.16l7.08-2.11C783.83,918.82,769.24,930.71,715.62,1020.19Zm58-95.47c5.66,2.23,9.52,4,12.22,4.85a3.16,3.16,0,0,1,1.76,1.41c1,1.67,3.67,6.37,11.51,19.94C760.88,938.31,768,942,773.66,924.72Zm-1-25.6c20.95,14.49,16.76,7.54,15,25.94C770.85,917.4,774.77,924.5,772.7,899.12Zm38.09,60a14.08,14.08,0,0,1-1.7-9.38c1.74-10.28,5.54-32.92,5.75-33.32l18.74.64-13.27,57.25a4.48,4.48,0,0,1-.27.83Zm4.06,19a5.27,5.27,0,0,1-.86-.18L757.77,960.8l8.82-16.54c.45,0,22,8,31.73,11.68a14.06,14.06,0,0,1,7.28,6.16Zm-10.52-30.19c-7.83-13.57-10.54-18.28-11.51-19.94a3.15,3.15,0,0,1-.34-2.23c.58-2.78,1-7,1.91-13C812.15,916.51,812.55,908.48,804.33,947.93Zm-59,32.61c11.3-18.64,4.78-17.58,69.58,3.34a10.9,10.9,0,0,1,6.07,4.91l9.2,15.93C815.51,1001.74,761.93,985.85,745.36,980.54Zm90,21.18-9.19-15.93a10.86,10.86,0,0,1-1.22-7.71c14.28-66.58,10.1-61.46,31.9-61.92C853.19,933.16,840.17,987.51,835.39,1001.72ZM760,870.24l5.37-5.07c29.15,43.3,59.08,37.47,128.2,36.27a8.12,8.12,0,0,1,5.94,2.41q3.22,3.27,6.59,6.37C801.78,911.92,784.19,918.61,760,870.24Zm150.24,35.84q-3.11-3.37-6.37-6.59a8.12,8.12,0,0,1-2.41-5.94c1.2-69.12,7-99-36.27-128.2l5.07-5.37C918.61,784.19,911.92,801.78,910.22,906.08ZM899.12,772.7c25.38,2.07,18.28-1.85,25.94,15C906.66,789.46,913.61,793.65,899.12,772.7Zm63,32.9a14.06,14.06,0,0,1-6.16-7.28c-3.64-9.77-11.67-31.28-11.68-31.73l16.54-8.82L977.94,814a5.27,5.27,0,0,1,.18.86Zm13,14.44a4.48,4.48,0,0,1-.83.27L917,833.58l-.64-18.74c.4-.21,23-4,33.32-5.75a14.08,14.08,0,0,1,9.38,1.7Zm-24.2-20.89c-13.57-7.84-18.27-10.56-19.94-11.51a3.16,3.16,0,0,1-1.41-1.76c-.89-2.7-2.62-6.56-4.85-12.22C942,768,938.31,760.88,950.92,799.15Zm-38.17-4.76c6-.91,10.23-1.33,13-1.91a3.15,3.15,0,0,1,2.23.34c1.66,1,6.37,3.68,19.94,11.52C908.48,812.55,916.51,812.15,912.75,794.39Zm3.41,62.49c.46-21.8-4.66-17.62,61.92-31.9a10.87,10.87,0,0,1,7.71,1.22l15.93,9.19C987.51,840.17,933.16,853.19,916.16,856.88Zm88.56-26.67L988.79,821a10.9,10.9,0,0,1-4.91-6.07c-20.92-64.8-22-58.28-3.34-69.58C985.85,761.93,1001.75,815.51,1004.72,830.21ZM873.67,754l2.11-7.08c46.89,22.93,69.91,2.92,129.16-32.68a8.18,8.18,0,0,1,6.35-.89c3,.82,5.91,1.56,8.9,2.23C930.71,769.24,918.82,783.84,873.67,754Zm148-44.08c-2.92-.91-5.85-1.75-8.81-2.52a8.12,8.12,0,0,1-5.06-3.94c-33.52-60.46-43.44-89.3-95.51-92.88l1.7-7.19C968,600.2,971,618.79,1021.7,710Zm-19.46-45.57c-10.5-19.11-12.84-12.93,37.68-58.59a10.9,10.9,0,0,1,7.29-2.81h18.39C1055.67,614.24,1015.12,652.69,1002.24,664.39Z"/></svg>